<svg xmlns="http://www.w3.org/2000/svg" xmlns:xlink="http://www.w3.org/1999/xlink" width="500" zoomAndPan="magnify" viewBox="0 0 375 277.499997" height="370" preserveAspectRatio="xMidYMid meet" version="1.0"><defs><g/><clipPath id="id1"><path d="M 1 10 L 373 10 L 373 274 L 1 274 Z M 1 10 " clip-rule="nonzero"/></clipPath><clipPath id="id2"><path d="M -5.09375 81.296875 L 334.054688 3.808594 L 379.441406 202.457031 L 40.289062 279.941406 Z M -5.09375 81.296875 " clip-rule="nonzero"/></clipPath></defs><g clip-path="url(#id1)"><g clip-path="url(#id2)"><path fill="#e03131" d="M 303.636719 27.953125 C 313.394531 25.722656 323.238281 31.890625 325.460938 41.625 L 355.277344 172.128906 C 357.503906 181.863281 351.3125 191.691406 341.554688 193.917969 L 70.710938 255.800781 C 60.953125 258.027344 51.109375 251.863281 48.886719 242.128906 L 19.070312 111.625 C 16.84375 101.890625 23.03125 92.0625 32.789062 89.835938 L 303.636719 27.953125 M 299.902344 11.613281 L 29.058594 73.496094 C 10.238281 77.792969 -1.601562 96.59375 2.6875 115.367188 L 32.503906 245.871094 C 36.796875 264.644531 55.625 276.441406 74.441406 272.140625 L 345.289062 210.257812 C 364.109375 205.960938 375.945312 187.160156 371.65625 168.386719 L 341.839844 37.882812 C 337.550781 19.109375 318.722656 7.3125 299.902344 11.613281 " fill-opacity="1" fill-rule="nonzero"/></g></g><g fill="#e03131" fill-opacity="1"><g transform="translate(47.380163, 236.445457)"><g/></g></g><g fill="#e03131" fill-opacity="1"><g transform="translate(71.82507, 230.860476)"><g><path d="M 23.421875 -19.9375 L 29.28125 -21.28125 C 32.570312 -22.03125 34.71875 -23.640625 35.71875 -26.109375 C 36.726562 -28.585938 36.582031 -32.671875 35.28125 -38.359375 L 21.984375 -96.265625 C 20.585938 -102.359375 18.847656 -106.519531 16.765625 -108.75 C 14.691406 -110.988281 11.832031 -111.691406 8.1875 -110.859375 L 2.921875 -109.65625 Z M 8.734375 -2 L -18.0625 -119.3125 L 8.265625 -125.328125 C 16.890625 -127.296875 23.722656 -126.179688 28.765625 -121.984375 C 33.816406 -117.785156 37.472656 -110.726562 39.734375 -100.8125 L 51.890625 -47.890625 C 54.585938 -36.078125 54.613281 -26.96875 51.96875 -20.5625 C 49.320312 -14.164062 43.484375 -9.9375 34.453125 -7.875 Z M 8.734375 -2 "/></g></g></g><g fill="#e03131" fill-opacity="1"><g transform="translate(138.814103, 215.555345)"><g><path d="M 17.875 -38.375 C 19.445312 -31.488281 21.066406 -26.8125 22.734375 -24.34375 C 24.398438 -21.875 26.851562 -21.007812 30.09375 -21.75 C 33.332031 -22.488281 35.144531 -24.363281 35.53125 -27.375 C 35.925781 -30.382812 35.351562 -35.265625 33.8125 -42.015625 L 21.328125 -96.671875 C 20.054688 -102.222656 18.601562 -106.15625 16.96875 -108.46875 C 15.34375 -110.789062 13.007812 -111.601562 9.96875 -110.90625 C 6.925781 -110.21875 5.082031 -108.453125 4.4375 -105.609375 C 3.800781 -102.773438 4.113281 -98.609375 5.375 -93.109375 Z M 51.6875 -46.328125 C 54.3125 -34.859375 54.226562 -25.832031 51.4375 -19.25 C 48.644531 -12.664062 42.742188 -8.34375 33.734375 -6.28125 C 24.734375 -4.226562 17.484375 -5.554688 11.984375 -10.265625 C 6.492188 -14.972656 2.441406 -23.039062 -0.171875 -34.46875 L -12.421875 -88.125 C -17.335938 -109.632812 -11.019531 -122.394531 6.53125 -126.40625 C 15.601562 -128.476562 22.75 -127.234375 27.96875 -122.671875 C 33.195312 -118.117188 37.019531 -110.554688 39.4375 -99.984375 Z M 51.6875 -46.328125 "/></g></g></g><g fill="#e03131" fill-opacity="1"><g transform="translate(205.403201, 200.341588)"><g><path d="M 8.796875 -2.015625 L -18 -119.328125 L -4 -122.515625 L 36.9375 -57.828125 L 28.359375 -89.515625 L 19.59375 -127.90625 L 35.65625 -131.578125 L 62.453125 -14.265625 L 49.796875 -11.375 L 7.625 -78.40625 L 15.640625 -47.828125 L 25.25 -5.765625 Z M 8.796875 -2.015625 "/></g></g></g><g fill="#e03131" fill-opacity="1"><g transform="translate(276.658202, 184.061802)"><g><path d="M 8.796875 -2.015625 L -18 -119.328125 L 21.328125 -128.3125 L 24.84375 -112.921875 L 3.375 -108.015625 L 11.171875 -73.875 L 31.5625 -78.53125 L 35 -63.46875 L 14.609375 -58.8125 L 23.140625 -21.5 L 45.40625 -26.578125 L 48.921875 -11.171875 Z M 8.796875 -2.015625 "/></g></g></g></svg>