<svg xmlns="http://www.w3.org/2000/svg" xmlns:xlink="http://www.w3.org/1999/xlink" width="500" zoomAndPan="magnify" viewBox="0 0 375 225" height="300" preserveAspectRatio="xMidYMid meet" version="1.0"><defs><g/><clipPath id="id1"><path d="M 1 7 L 368 7 L 368 178 L 1 178 Z M 1 7 " clip-rule="nonzero"/></clipPath><clipPath id="id2"><path d="M -1.242188 71.910156 L 349.765625 4.484375 L 370.609375 112.992188 L 19.601562 180.417969 Z M -1.242188 71.910156 " clip-rule="nonzero"/></clipPath></defs><g clip-path="url(#id1)"><g clip-path="url(#id2)"><path fill="#e03131" d="M 335.085938 15.351562 C 339.703125 14.464844 344.226562 17.535156 345.113281 22.15625 L 359.742188 98.296875 C 360.628906 102.921875 357.566406 107.449219 352.949219 108.335938 L 34.28125 169.550781 C 29.664062 170.4375 25.140625 167.367188 24.253906 162.742188 L 9.628906 86.601562 C 8.738281 81.980469 11.800781 77.453125 16.417969 76.566406 L 335.085938 15.351562 M 333.597656 7.589844 L 14.929688 68.804688 C 6.023438 70.515625 0.164062 79.175781 1.878906 88.089844 L 16.503906 164.234375 C 18.214844 173.148438 26.867188 179.023438 35.773438 177.3125 L 354.441406 116.097656 C 363.34375 114.386719 369.203125 105.726562 367.492188 96.808594 L 352.863281 20.667969 C 351.152344 11.75 342.5 5.878906 333.597656 7.589844 " fill-opacity="1" fill-rule="nonzero"/></g></g><g fill="#e03131" fill-opacity="1"><g transform="translate(40.101594, 158.332763)"><g><path d="M 0.078125 -21.703125 L -1.203125 -28.34375 L 9.546875 -30.40625 L 10.984375 -22.921875 C 11.785156 -18.773438 12.695312 -15.929688 13.71875 -14.390625 C 14.738281 -12.859375 16.21875 -12.28125 18.15625 -12.65625 C 20.101562 -13.03125 21.257812 -13.96875 21.625 -15.46875 C 22 -16.976562 21.882812 -19.296875 21.28125 -22.421875 C 20.6875 -25.546875 19.597656 -28.160156 18.015625 -30.265625 C 16.441406 -32.378906 14.191406 -34.460938 11.265625 -36.515625 L 4.6875 -41.140625 C 1.601562 -43.316406 -0.921875 -45.703125 -2.890625 -48.296875 C -4.867188 -50.898438 -6.222656 -54.085938 -6.953125 -57.859375 C -8.128906 -64.003906 -7.820312 -68.800781 -6.03125 -72.25 C -4.238281 -75.695312 -0.453125 -77.972656 5.328125 -79.078125 C 11.109375 -80.191406 15.351562 -79.203125 18.0625 -76.109375 C 20.769531 -73.015625 22.765625 -68.128906 24.046875 -61.453125 L 24.9375 -56.84375 L 14.5 -54.84375 L 13.46875 -60.171875 C 12.78125 -63.785156 11.972656 -66.3125 11.046875 -67.75 C 10.128906 -69.195312 8.785156 -69.75 7.015625 -69.40625 C 5.253906 -69.070312 4.101562 -68.234375 3.5625 -66.890625 C 3.019531 -65.554688 2.972656 -63.707031 3.421875 -61.34375 C 3.878906 -58.976562 4.632812 -57.164062 5.6875 -55.90625 C 6.75 -54.65625 8.519531 -53.125 11 -51.3125 L 18.390625 -45.875 C 22.109375 -43.132812 25.070312 -40.207031 27.28125 -37.09375 C 29.5 -33.988281 30.992188 -30.421875 31.765625 -26.390625 C 33.109375 -19.429688 32.929688 -14.066406 31.234375 -10.296875 C 29.535156 -6.523438 25.757812 -4.078125 19.90625 -2.953125 C 14.0625 -1.828125 9.632812 -2.894531 6.625 -6.15625 C 3.625 -9.414062 1.441406 -14.597656 0.078125 -21.703125 Z M 0.078125 -21.703125 "/></g></g></g><g fill="#e03131" fill-opacity="1"><g transform="translate(78.345899, 150.986227)"><g><path d="M 5.578125 -1.078125 L -8.71875 -75.46875 L 2.609375 -77.640625 L 8.390625 -47.546875 L 18.53125 -49.5 L 12.75 -79.59375 L 24.078125 -81.765625 L 38.375 -7.375 L 27.046875 -5.203125 L 20.40625 -39.78125 L 10.265625 -37.828125 L 16.90625 -3.25 Z M 5.578125 -1.078125 "/></g></g></g><g fill="#e03131" fill-opacity="1"><g transform="translate(122.295156, 142.543799)"><g><path d="M 21.234375 -27.265625 L 9.078125 -63.671875 L 8.90625 -63.640625 L 11.515625 -25.390625 Z M 2.1875 -0.421875 L -1.484375 -76.859375 L 13.46875 -79.71875 L 39.046875 -7.5 L 28.484375 -5.46875 L 24.171875 -18.390625 L 12.171875 -16.09375 L 13.109375 -2.515625 Z M 2.1875 -0.421875 "/></g></g></g><g fill="#e03131" fill-opacity="1"><g transform="translate(163.539844, 134.620905)"><g/></g></g><g fill="#e03131" fill-opacity="1"><g transform="translate(179.04886, 131.641702)"><g><path d="M 15.171875 -12.03125 L 18.890625 -12.75 C 20.972656 -13.144531 22.359375 -14.109375 23.046875 -15.640625 C 23.734375 -17.171875 23.734375 -19.742188 23.046875 -23.359375 L 15.9375 -60.078125 C 15.195312 -63.941406 14.195312 -66.597656 12.9375 -68.046875 C 11.675781 -69.492188 9.894531 -69.992188 7.59375 -69.546875 L 4.25 -68.90625 Z M 5.546875 -1.0625 L -8.75 -75.453125 L 7.9375 -78.65625 C 13.394531 -79.707031 17.664062 -78.851562 20.75 -76.09375 C 23.84375 -73.34375 25.992188 -68.828125 27.203125 -62.546875 L 33.703125 -29.015625 C 35.140625 -21.515625 34.953125 -15.773438 33.140625 -11.796875 C 31.328125 -7.828125 27.5625 -5.296875 21.84375 -4.203125 Z M 5.546875 -1.0625 "/></g></g></g><g fill="#e03131" fill-opacity="1"><g transform="translate(221.519056, 123.483394)"><g><path d="M 12.09375 -23.765625 C 12.925781 -19.390625 13.835938 -16.40625 14.828125 -14.8125 C 15.828125 -13.226562 17.351562 -12.632812 19.40625 -13.03125 C 21.46875 -13.425781 22.648438 -14.5625 22.953125 -16.4375 C 23.265625 -18.320312 23.007812 -21.410156 22.1875 -25.703125 L 15.53125 -60.359375 C 14.851562 -63.878906 14.03125 -66.382812 13.0625 -67.875 C 12.09375 -69.363281 10.640625 -69.921875 8.703125 -69.546875 C 6.765625 -69.179688 5.566406 -68.113281 5.109375 -66.34375 C 4.648438 -64.582031 4.753906 -61.953125 5.421875 -58.453125 Z M 33.53125 -28 C 34.925781 -20.726562 34.671875 -15.054688 32.765625 -10.984375 C 30.859375 -6.910156 27.050781 -4.320312 21.34375 -3.21875 C 15.644531 -2.125 11.117188 -3.113281 7.765625 -6.1875 C 4.421875 -9.269531 2.050781 -14.4375 0.65625 -21.6875 L -5.875 -55.703125 C -8.488281 -69.347656 -4.234375 -77.238281 6.890625 -79.375 C 12.640625 -80.476562 17.101562 -79.535156 20.28125 -76.546875 C 23.46875 -73.566406 25.707031 -68.722656 27 -62.015625 Z M 33.53125 -28 "/></g></g></g><g fill="#e03131" fill-opacity="1"><g transform="translate(263.735698, 115.373793)"><g><path d="M 5.578125 -1.078125 L -8.71875 -75.46875 L 0.15625 -77.171875 L 24.5 -35.546875 L 19.8125 -55.6875 L 15.125 -80.046875 L 25.3125 -82 L 39.609375 -7.609375 L 31.578125 -6.0625 L 6.515625 -49.15625 L 10.890625 -29.75 L 16.015625 -3.078125 Z M 5.578125 -1.078125 "/></g></g></g><g fill="#e03131" fill-opacity="1"><g transform="translate(308.910474, 106.695949)"><g><path d="M 5.578125 -1.078125 L -8.71875 -75.46875 L 16.21875 -80.25 L 18.109375 -70.46875 L 4.5 -67.859375 L 8.65625 -46.234375 L 21.59375 -48.71875 L 23.421875 -39.171875 L 10.484375 -36.6875 L 15.03125 -13.015625 L 29.15625 -15.71875 L 31.03125 -5.953125 Z M 5.578125 -1.078125 "/></g></g></g><g fill="#e03131" fill-opacity="1"><g transform="translate(159.62874, 181.368459)"><g><path d="M 4.253906 0.144531 C 6.472656 0.144531 7.59375 -1.054688 7.59375 -3.351562 L 7.59375 -5 C 7.59375 -6.152344 7.625 -6.285156 7.84375 -6.460938 C 8.011719 -6.59375 8.121094 -6.703125 8.121094 -7.019531 C 8.121094 -7.449219 7.84375 -7.703125 7.1875 -7.703125 L 6.605469 -7.703125 C 5.800781 -7.703125 5.605469 -7.4375 5.605469 -7.019531 C 5.605469 -6.714844 5.679688 -6.613281 5.878906 -6.4375 C 6.054688 -6.273438 6.132812 -6.152344 6.132812 -5.042969 L 6.132812 -3.261719 C 6.132812 -2.230469 5.746094 -1.746094 4.910156 -1.746094 C 3.957031 -1.746094 3.484375 -2.273438 3.484375 -3.40625 L 3.484375 -5.078125 C 3.484375 -6.152344 3.550781 -6.296875 3.746094 -6.449219 C 3.921875 -6.582031 4.023438 -6.714844 4.011719 -7.019531 C 4.011719 -7.484375 3.757812 -7.703125 3.066406 -7.703125 L 1.097656 -7.691406 C 0.417969 -7.691406 0.0546875 -7.605469 0.0546875 -7.019531 C 0.0546875 -6.746094 0.132812 -6.570312 0.320312 -6.449219 C 0.550781 -6.296875 0.582031 -6.152344 0.582031 -4.910156 L 0.582031 -3.394531 C 0.582031 -1.066406 1.636719 0.144531 4.253906 0.144531 Z M 4.253906 0.144531 "/></g></g></g><g fill="#e03131" fill-opacity="1"><g transform="translate(167.795612, 181.368459)"><g><path d="M 2.902344 0.144531 C 4.636719 0.144531 5.921875 -0.382812 5.921875 -1.726562 C 5.921875 -2.625 5.527344 -3.1875 4.011719 -3.671875 C 3.382812 -3.867188 3.308594 -3.957031 3.308594 -4.140625 C 3.308594 -4.207031 3.375 -4.328125 3.503906 -4.328125 C 3.734375 -4.328125 3.890625 -4.1875 4.078125 -4.023438 C 4.285156 -3.835938 4.527344 -3.613281 4.957031 -3.613281 C 5.4375 -3.613281 5.679688 -3.988281 5.679688 -4.363281 C 5.679688 -4.679688 5.539062 -4.945312 5.273438 -5.164062 C 5.03125 -5.351562 4.714844 -5.492188 4.316406 -5.59375 C 3.933594 -5.691406 3.484375 -5.734375 3.011719 -5.734375 C 1.769531 -5.734375 0.253906 -5.132812 0.253906 -3.800781 C 0.253906 -2.921875 0.8125 -2.339844 2.023438 -1.933594 C 2.582031 -1.746094 2.679688 -1.671875 2.679688 -1.496094 C 2.679688 -1.339844 2.582031 -1.261719 2.394531 -1.261719 C 2 -1.261719 1.800781 -1.460938 1.605469 -1.671875 C 1.382812 -1.902344 1.144531 -2.132812 0.625 -2.132812 C 0.285156 -2.132812 0 -1.835938 0 -1.394531 C 0 -0.976562 0.21875 -0.648438 0.582031 -0.40625 C 0.824219 -0.242188 1.121094 -0.121094 1.449219 -0.03125 C 1.890625 0.0898438 2.394531 0.144531 2.902344 0.144531 Z M 2.902344 0.144531 "/></g></g></g><g fill="#e03131" fill-opacity="1"><g transform="translate(173.778069, 181.368459)"><g><path d="M 3.328125 0.144531 C 5.207031 0.144531 6.132812 -0.902344 6.132812 -1.605469 C 6.132812 -1.988281 5.910156 -2.230469 5.613281 -2.230469 C 5.460938 -2.230469 5.285156 -2.152344 5.097656 -2.011719 C 4.902344 -1.855469 4.351562 -1.625 3.933594 -1.625 C 3.242188 -1.625 3.085938 -2.03125 3.085938 -2.164062 C 3.085938 -2.273438 3.109375 -2.382812 3.253906 -2.394531 L 5.503906 -2.648438 C 6.042969 -2.703125 6.328125 -3.03125 6.328125 -3.605469 C 6.328125 -4.484375 5.484375 -5.726562 3.375 -5.726562 C 1.515625 -5.726562 0.109375 -4.558594 0.109375 -2.769531 C 0.109375 -1.207031 1.375 0.144531 3.328125 0.144531 Z M 3.21875 -3.066406 C 2.964844 -3.03125 2.945312 -3.164062 2.945312 -3.484375 C 2.945312 -4.140625 3.144531 -4.339844 3.375 -4.339844 C 3.746094 -4.339844 3.855469 -3.757812 3.855469 -3.515625 C 3.855469 -3.253906 3.824219 -3.144531 3.636719 -3.121094 Z M 3.21875 -3.066406 "/></g></g></g><g fill="#e03131" fill-opacity="1"><g transform="translate(180.11179, 181.368459)"><g/></g></g><g fill="#e03131" fill-opacity="1"><g transform="translate(183.569534, 181.368459)"><g><path d="M 1.429688 1.902344 C 2.570312 1.902344 3.714844 0.835938 4.714844 -0.582031 C 5.121094 -1.164062 5.492188 -1.792969 5.769531 -2.394531 C 6.078125 -3.054688 6.261719 -3.691406 6.261719 -4.230469 C 6.261719 -4.550781 6.21875 -4.835938 6.109375 -5.078125 C 6.03125 -5.253906 5.921875 -5.40625 5.769531 -5.527344 C 5.59375 -5.648438 5.363281 -5.726562 5.078125 -5.726562 C 4.855469 -5.726562 4.679688 -5.679688 4.550781 -5.59375 C 4.242188 -5.429688 4.109375 -5.121094 4.109375 -4.847656 C 4.109375 -4.375 4.273438 -4.109375 4.417969 -3.890625 C 4.558594 -3.671875 4.648438 -3.484375 4.558594 -3.199219 C 4.527344 -3.097656 4.429688 -2.910156 4.308594 -2.703125 C 4.207031 -2.539062 4.054688 -2.570312 3.945312 -2.769531 C 3.714844 -3.199219 3.605469 -3.558594 3.550781 -3.824219 C 3.503906 -4.042969 3.582031 -4.230469 3.679688 -4.382812 C 3.835938 -4.625 3.902344 -4.746094 3.902344 -4.988281 C 3.902344 -5.382812 3.660156 -5.648438 2.660156 -5.648438 L 1.285156 -5.648438 C 0.375 -5.648438 0 -5.429688 0 -4.976562 C 0 -4.726562 0.121094 -4.515625 0.253906 -4.375 C 0.394531 -4.207031 0.496094 -4.011719 0.605469 -3.726562 C 1.03125 -2.550781 1.417969 -1.679688 2.078125 -0.285156 C 2.253906 0.0898438 2.382812 0.429688 2.253906 0.527344 C 2.199219 0.570312 2.144531 0.582031 2.085938 0.582031 C 1.988281 0.570312 1.945312 0.503906 1.902344 0.394531 C 1.691406 -0.199219 1.351562 -0.40625 0.855469 -0.40625 C 0.320312 -0.40625 -0.0664062 0.03125 -0.0664062 0.539062 C -0.0664062 1.207031 0.484375 1.902344 1.429688 1.902344 Z M 1.429688 1.902344 "/></g></g></g><g fill="#e03131" fill-opacity="1"><g transform="translate(189.936189, 181.368459)"><g><path d="M 3.703125 0.144531 C 5.84375 0.144531 7.253906 -1.023438 7.253906 -2.800781 C 7.253906 -4.570312 5.84375 -5.734375 3.703125 -5.734375 C 1.527344 -5.734375 0.109375 -4.570312 0.109375 -2.800781 C 0.109375 -1.023438 1.527344 0.144531 3.703125 0.144531 Z M 3.847656 -1.253906 C 3.085938 -1.253906 2.957031 -2.636719 2.957031 -3.417969 C 2.957031 -4.140625 3.242188 -4.339844 3.515625 -4.339844 C 4.273438 -4.339844 4.40625 -3 4.40625 -2.1875 C 4.40625 -1.4375 4.121094 -1.253906 3.847656 -1.253906 Z M 3.847656 -1.253906 "/></g></g></g><g fill="#e03131" fill-opacity="1"><g transform="translate(197.290765, 181.368459)"><g><path d="M 2.496094 0.152344 C 4.03125 0.152344 4.21875 -1.054688 4.375 -1.054688 C 4.40625 -1.054688 4.449219 -0.96875 4.449219 -0.855469 L 4.449219 -0.625 C 4.449219 -0.0546875 4.824219 0.0664062 5.296875 0.0664062 C 6.078125 0.0664062 6.800781 0.0234375 7.261719 -0.242188 C 7.527344 -0.394531 7.746094 -0.582031 7.746094 -0.96875 C 7.746094 -1.273438 7.613281 -1.40625 7.417969 -1.558594 C 7.261719 -1.679688 7.1875 -2 7.1875 -2.296875 L 7.1875 -4.964844 C 7.1875 -5.539062 6.8125 -5.660156 6.339844 -5.660156 C 5.558594 -5.660156 4.835938 -5.613281 4.375 -5.351562 C 4.109375 -5.199219 3.890625 -5.011719 3.890625 -4.625 C 3.890625 -4.316406 4.023438 -4.1875 4.21875 -4.03125 C 4.375 -3.910156 4.4375 -3.59375 4.4375 -3.296875 L 4.4375 -2.769531 C 4.4375 -2.175781 4.132812 -1.800781 3.8125 -1.800781 C 3.570312 -1.800781 3.351562 -1.988281 3.351562 -2.449219 L 3.351562 -4.964844 C 3.351562 -5.539062 2.976562 -5.660156 2.503906 -5.660156 C 1.726562 -5.660156 1 -5.613281 0.539062 -5.351562 C 0.273438 -5.199219 0.0546875 -5.011719 0.0546875 -4.625 C 0.0546875 -4.316406 0.1875 -4.1875 0.382812 -4.03125 C 0.539062 -3.910156 0.605469 -3.59375 0.605469 -3.296875 L 0.605469 -2.011719 C 0.605469 -0.363281 1.625 0.152344 2.496094 0.152344 Z M 2.496094 0.152344 "/></g></g></g><g fill="#e03131" fill-opacity="1"><g transform="translate(205.040518, 181.368459)"><g><path d="M 1.539062 0.078125 L 2.527344 0.078125 C 3.582031 0.078125 3.933594 -0.03125 3.933594 -0.617188 C 3.933594 -0.878906 3.835938 -1.066406 3.636719 -1.207031 C 3.460938 -1.339844 3.40625 -1.726562 3.40625 -2.472656 L 3.40625 -2.570312 C 3.40625 -3.121094 3.515625 -3.703125 3.703125 -3.703125 C 3.769531 -3.703125 3.824219 -3.679688 3.824219 -3.570312 C 3.824219 -2.976562 4.316406 -2.59375 4.921875 -2.59375 C 5.605469 -2.59375 6.054688 -3.21875 6.054688 -4.164062 C 6.054688 -5.316406 5.339844 -5.734375 4.660156 -5.734375 C 3.660156 -5.734375 3.285156 -4.527344 3.152344 -4.527344 C 3.097656 -4.527344 3.085938 -4.625 3.085938 -4.714844 L 3.085938 -5.078125 C 3.085938 -5.648438 2.8125 -5.660156 2.558594 -5.660156 C 1.78125 -5.660156 1.054688 -5.613281 0.59375 -5.351562 C 0.328125 -5.199219 0.109375 -5.011719 0.109375 -4.625 C 0.109375 -4.316406 0.242188 -4.1875 0.441406 -4.03125 C 0.59375 -3.910156 0.660156 -3.59375 0.660156 -3.296875 L 0.660156 -2.460938 C 0.660156 -1.726562 0.605469 -1.339844 0.429688 -1.207031 C 0.230469 -1.066406 0.132812 -0.878906 0.132812 -0.617188 C 0.132812 -0.03125 0.472656 0.078125 1.539062 0.078125 Z M 1.539062 0.078125 "/></g></g></g><g fill="#e03131" fill-opacity="1"><g transform="translate(211.088831, 181.368459)"><g/></g></g><g fill="#e03131" fill-opacity="1"><g transform="translate(214.546576, 181.368459)"><g><path d="M 2.78125 0.078125 C 3.835938 0.078125 4.1875 -0.03125 4.1875 -0.617188 C 4.1875 -0.878906 4.085938 -1.066406 3.890625 -1.207031 C 3.714844 -1.339844 3.648438 -1.726562 3.648438 -2.472656 L 3.648438 -3.855469 C 3.648438 -4.140625 3.855469 -4.242188 4.042969 -4.242188 L 4.121094 -4.242188 C 4.4375 -4.242188 4.679688 -4.648438 4.679688 -5.109375 C 4.679688 -5.4375 4.472656 -5.59375 4.253906 -5.59375 L 3.144531 -5.59375 C 2.59375 -5.59375 2.230469 -5.84375 2.230469 -6.230469 C 2.230469 -6.527344 2.375 -6.667969 2.558594 -6.667969 C 2.703125 -6.667969 2.867188 -6.570312 3 -6.394531 C 3.261719 -6.042969 3.582031 -5.890625 4.042969 -5.890625 C 4.59375 -5.890625 4.957031 -6.230469 4.957031 -6.789062 C 4.957031 -7.550781 4.316406 -8.019531 2.734375 -8.019531 C 1.253906 -8.019531 0.671875 -7.164062 0.671875 -6.363281 C 0.671875 -6.097656 0.769531 -5.835938 0.902344 -5.59375 L 0.671875 -5.59375 C 0.308594 -5.59375 0.0429688 -5.230469 0.0429688 -4.78125 C 0.0429688 -4.351562 0.175781 -4.242188 0.441406 -4.242188 L 0.617188 -4.242188 C 0.703125 -4.242188 0.910156 -4.230469 0.910156 -3.8125 L 0.910156 -2.460938 C 0.910156 -1.726562 0.855469 -1.339844 0.679688 -1.207031 C 0.484375 -1.066406 0.382812 -0.878906 0.382812 -0.617188 C 0.382812 -0.03125 0.726562 0.078125 1.792969 0.078125 Z M 2.78125 0.078125 "/></g></g></g><g fill="#e03131" fill-opacity="1"><g transform="translate(219.332539, 181.368459)"><g><path d="M 2.066406 0.144531 C 3.660156 0.144531 3.945312 -0.800781 4.121094 -0.800781 C 4.164062 -0.800781 4.261719 -0.636719 4.296875 -0.558594 C 4.492188 -0.1875 4.902344 0.0976562 5.613281 0.0976562 C 6.484375 0.0976562 6.988281 -0.394531 6.988281 -0.988281 C 6.988281 -1.164062 6.945312 -1.273438 6.878906 -1.363281 C 6.800781 -1.460938 6.679688 -1.515625 6.59375 -1.625 C 6.527344 -1.691406 6.472656 -1.792969 6.460938 -1.957031 L 6.316406 -3.460938 C 6.199219 -4.734375 5.636719 -5.734375 3.527344 -5.734375 C 2.023438 -5.734375 0.472656 -5.199219 0.472656 -4.21875 C 0.472656 -3.734375 0.945312 -3.40625 1.320312 -3.40625 C 1.957031 -3.40625 2.273438 -3.671875 2.484375 -4.042969 C 2.625 -4.296875 2.746094 -4.40625 3.03125 -4.40625 C 3.328125 -4.40625 3.503906 -4.230469 3.558594 -3.78125 L 3.570312 -3.691406 C 3.613281 -3.363281 3.152344 -3.417969 2.679688 -3.375 C 1.296875 -3.242188 0.0546875 -2.824219 0.0546875 -1.625 C 0.0546875 -0.835938 0.472656 0.144531 2.066406 0.144531 Z M 3.382812 -1.21875 C 3.175781 -1.21875 2.824219 -1.4375 2.824219 -2.023438 C 2.824219 -2.394531 2.910156 -2.714844 3.320312 -2.714844 C 3.527344 -2.714844 3.691406 -2.59375 3.726562 -2.308594 L 3.789062 -1.8125 C 3.835938 -1.484375 3.636719 -1.21875 3.382812 -1.21875 Z M 3.382812 -1.21875 "/></g></g></g><g fill="#e03131" fill-opacity="1"><g transform="translate(226.313896, 181.368459)"><g><path d="M 3.339844 0.0664062 C 3.957031 0.0664062 4.199219 -0.1875 4.625 -0.636719 C 5.515625 -1.558594 6.261719 -3.207031 6.261719 -4.1875 C 6.261719 -4.515625 6.21875 -4.824219 6.109375 -5.066406 C 6.03125 -5.261719 5.910156 -5.417969 5.757812 -5.539062 C 5.59375 -5.660156 5.382812 -5.726562 5.121094 -5.726562 C 4.910156 -5.726562 4.714844 -5.679688 4.558594 -5.605469 C 4.273438 -5.460938 4.097656 -5.1875 4.097656 -4.8125 C 4.097656 -4.503906 4.21875 -4.132812 4.503906 -3.703125 C 4.605469 -3.550781 4.613281 -3.382812 4.558594 -3.199219 C 4.515625 -3.042969 4.417969 -2.878906 4.285156 -2.703125 C 4.1875 -2.558594 4.066406 -2.582031 4 -2.714844 C 3.769531 -3.152344 3.613281 -3.558594 3.558594 -3.824219 C 3.515625 -4.042969 3.59375 -4.230469 3.691406 -4.382812 C 3.855469 -4.625 3.910156 -4.714844 3.910156 -4.957031 C 3.910156 -5.4375 3.671875 -5.648438 2.671875 -5.648438 L 1.296875 -5.648438 C 0.382812 -5.648438 0.0117188 -5.429688 0.0117188 -4.976562 C 0.0117188 -4.726562 0.132812 -4.515625 0.265625 -4.375 C 0.40625 -4.207031 0.515625 -4.023438 0.617188 -3.726562 C 0.945312 -2.726562 1.285156 -1.976562 1.867188 -0.734375 C 2.121094 -0.207031 2.539062 0.0664062 3.023438 0.0664062 Z M 3.339844 0.0664062 "/></g></g></g><g fill="#e03131" fill-opacity="1"><g transform="translate(232.680551, 181.368459)"><g><path d="M 3.703125 0.144531 C 5.84375 0.144531 7.253906 -1.023438 7.253906 -2.800781 C 7.253906 -4.570312 5.84375 -5.734375 3.703125 -5.734375 C 1.527344 -5.734375 0.109375 -4.570312 0.109375 -2.800781 C 0.109375 -1.023438 1.527344 0.144531 3.703125 0.144531 Z M 3.847656 -1.253906 C 3.085938 -1.253906 2.957031 -2.636719 2.957031 -3.417969 C 2.957031 -4.140625 3.242188 -4.339844 3.515625 -4.339844 C 4.273438 -4.339844 4.40625 -3 4.40625 -2.1875 C 4.40625 -1.4375 4.121094 -1.253906 3.847656 -1.253906 Z M 3.847656 -1.253906 "/></g></g></g><g fill="#e03131" fill-opacity="1"><g transform="translate(240.035127, 181.368459)"><g><path d="M 1.539062 0.078125 L 2.527344 0.078125 C 3.582031 0.078125 3.933594 -0.03125 3.933594 -0.617188 C 3.933594 -0.878906 3.835938 -1.066406 3.636719 -1.207031 C 3.460938 -1.339844 3.40625 -1.726562 3.40625 -2.472656 L 3.40625 -2.570312 C 3.40625 -3.121094 3.515625 -3.703125 3.703125 -3.703125 C 3.769531 -3.703125 3.824219 -3.679688 3.824219 -3.570312 C 3.824219 -2.976562 4.316406 -2.59375 4.921875 -2.59375 C 5.605469 -2.59375 6.054688 -3.21875 6.054688 -4.164062 C 6.054688 -5.316406 5.339844 -5.734375 4.660156 -5.734375 C 3.660156 -5.734375 3.285156 -4.527344 3.152344 -4.527344 C 3.097656 -4.527344 3.085938 -4.625 3.085938 -4.714844 L 3.085938 -5.078125 C 3.085938 -5.648438 2.8125 -5.660156 2.558594 -5.660156 C 1.78125 -5.660156 1.054688 -5.613281 0.59375 -5.351562 C 0.328125 -5.199219 0.109375 -5.011719 0.109375 -4.625 C 0.109375 -4.316406 0.242188 -4.1875 0.441406 -4.03125 C 0.59375 -3.910156 0.660156 -3.59375 0.660156 -3.296875 L 0.660156 -2.460938 C 0.660156 -1.726562 0.605469 -1.339844 0.429688 -1.207031 C 0.230469 -1.066406 0.132812 -0.878906 0.132812 -0.617188 C 0.132812 -0.03125 0.472656 0.078125 1.539062 0.078125 Z M 1.539062 0.078125 "/></g></g></g><g fill="#e03131" fill-opacity="1"><g transform="translate(246.083441, 181.368459)"><g><path d="M 1.890625 -5.988281 C 2.890625 -5.988281 3.539062 -6.460938 3.539062 -7.175781 C 3.539062 -7.867188 2.890625 -8.316406 1.890625 -8.316406 C 0.855469 -8.316406 0.175781 -7.867188 0.175781 -7.175781 C 0.175781 -6.460938 0.855469 -5.988281 1.890625 -5.988281 Z M 1.539062 0.078125 L 2.527344 0.078125 C 3.582031 0.078125 3.933594 -0.03125 3.933594 -0.617188 C 3.933594 -0.878906 3.835938 -1.066406 3.636719 -1.207031 C 3.460938 -1.339844 3.40625 -1.726562 3.40625 -2.472656 L 3.40625 -4.964844 C 3.40625 -5.539062 3.03125 -5.660156 2.558594 -5.660156 C 1.78125 -5.660156 1.054688 -5.613281 0.59375 -5.351562 C 0.328125 -5.199219 0.109375 -5.011719 0.109375 -4.625 C 0.109375 -4.316406 0.242188 -4.1875 0.441406 -4.03125 C 0.59375 -3.910156 0.660156 -3.59375 0.660156 -3.296875 L 0.660156 -2.460938 C 0.660156 -1.726562 0.605469 -1.339844 0.429688 -1.207031 C 0.230469 -1.066406 0.132812 -0.878906 0.132812 -0.617188 C 0.132812 -0.03125 0.472656 0.078125 1.539062 0.078125 Z M 1.539062 0.078125 "/></g></g></g><g fill="#e03131" fill-opacity="1"><g transform="translate(250.122977, 181.368459)"><g><path d="M 2.835938 0.132812 C 4 0.132812 5 -0.515625 5.109375 -1.429688 C 5.164062 -1.890625 4.789062 -2.042969 4.382812 -1.890625 C 4.21875 -1.824219 4.011719 -1.769531 3.890625 -1.769531 C 3.558594 -1.769531 3.394531 -2.011719 3.394531 -2.351562 L 3.394531 -3.890625 C 3.394531 -4.140625 3.550781 -4.242188 3.746094 -4.242188 L 4.417969 -4.242188 C 4.769531 -4.242188 5.03125 -4.605469 5.03125 -5.109375 C 5.03125 -5.503906 4.835938 -5.59375 4.550781 -5.59375 L 3.679688 -5.59375 C 3.40625 -5.59375 3.375 -5.636719 3.375 -6.296875 L 3.375 -6.78125 C 3.375 -7.175781 3.351562 -7.449219 2.726562 -7.449219 C 2.328125 -7.449219 1.902344 -7.261719 1.503906 -6.976562 C 1.097656 -6.691406 0.703125 -6.316406 0.417969 -5.902344 L 0.242188 -5.648438 C 0.03125 -5.339844 -0.0664062 -5.011719 -0.0664062 -4.734375 C -0.0664062 -4.375 0.078125 -4.21875 0.339844 -4.21875 L 0.40625 -4.21875 C 0.625 -4.21875 0.660156 -4.066406 0.660156 -3.902344 L 0.660156 -1.847656 C 0.660156 -0.394531 1.515625 0.132812 2.835938 0.132812 Z M 2.835938 0.132812 "/></g></g></g><g fill="#e03131" fill-opacity="1"><g transform="translate(255.337038, 181.368459)"><g><path d="M 3.328125 0.144531 C 5.207031 0.144531 6.132812 -0.902344 6.132812 -1.605469 C 6.132812 -1.988281 5.910156 -2.230469 5.613281 -2.230469 C 5.460938 -2.230469 5.285156 -2.152344 5.097656 -2.011719 C 4.902344 -1.855469 4.351562 -1.625 3.933594 -1.625 C 3.242188 -1.625 3.085938 -2.03125 3.085938 -2.164062 C 3.085938 -2.273438 3.109375 -2.382812 3.253906 -2.394531 L 5.503906 -2.648438 C 6.042969 -2.703125 6.328125 -3.03125 6.328125 -3.605469 C 6.328125 -4.484375 5.484375 -5.726562 3.375 -5.726562 C 1.515625 -5.726562 0.109375 -4.558594 0.109375 -2.769531 C 0.109375 -1.207031 1.375 0.144531 3.328125 0.144531 Z M 3.21875 -3.066406 C 2.964844 -3.03125 2.945312 -3.164062 2.945312 -3.484375 C 2.945312 -4.140625 3.144531 -4.339844 3.375 -4.339844 C 3.746094 -4.339844 3.855469 -3.757812 3.855469 -3.515625 C 3.855469 -3.253906 3.824219 -3.144531 3.636719 -3.121094 Z M 3.21875 -3.066406 "/></g></g></g><g fill="#e03131" fill-opacity="1"><g transform="translate(261.670759, 181.368459)"><g/></g></g><g fill="#e03131" fill-opacity="1"><g transform="translate(265.128503, 181.368459)"><g><path d="M 3.109375 0.0117188 L 5.140625 0.0117188 C 5.835938 0.0117188 6.085938 -0.207031 6.085938 -0.671875 C 6.085938 -0.976562 5.988281 -1.121094 5.8125 -1.242188 C 5.613281 -1.375 5.570312 -1.539062 5.570312 -2.109375 L 5.570312 -2.375 C 5.570312 -2.726562 5.667969 -3.484375 5.910156 -3.910156 L 7.011719 -5.867188 C 7.207031 -6.207031 7.363281 -6.375 7.527344 -6.503906 C 7.757812 -6.691406 8.03125 -6.800781 8.03125 -7.164062 C 8.03125 -7.550781 7.703125 -7.691406 7.042969 -7.691406 L 6.085938 -7.691406 C 5.625 -7.691406 5.207031 -7.550781 5.207031 -7.164062 C 5.207031 -7.03125 5.261719 -6.921875 5.363281 -6.734375 C 5.4375 -6.59375 5.582031 -6.382812 5.484375 -6.121094 L 5.199219 -5.375 C 5.085938 -5.078125 4.835938 -5.097656 4.703125 -5.375 L 4.570312 -5.648438 C 4.382812 -6.042969 4.296875 -6.230469 4.472656 -6.503906 C 4.570312 -6.660156 4.769531 -6.855469 4.769531 -7.085938 C 4.769531 -7.363281 4.679688 -7.691406 3.78125 -7.691406 L 1.308594 -7.691406 C 0.59375 -7.691406 0.0429688 -7.613281 0.0429688 -6.964844 C 0.0429688 -6.679688 0.382812 -6.460938 0.757812 -6.175781 C 0.910156 -6.054688 1.121094 -5.84375 1.308594 -5.492188 L 2.230469 -3.734375 C 2.472656 -3.285156 2.679688 -2.691406 2.679688 -2.363281 L 2.679688 -2.109375 C 2.679688 -1.539062 2.636719 -1.375 2.4375 -1.242188 C 2.261719 -1.121094 2.164062 -0.976562 2.164062 -0.671875 C 2.164062 -0.207031 2.417969 0.0117188 3.109375 0.0117188 Z M 3.109375 0.0117188 "/></g></g></g><g fill="#e03131" fill-opacity="1"><g transform="translate(273.196584, 181.368459)"><g><path d="M 3.703125 0.144531 C 5.84375 0.144531 7.253906 -1.023438 7.253906 -2.800781 C 7.253906 -4.570312 5.84375 -5.734375 3.703125 -5.734375 C 1.527344 -5.734375 0.109375 -4.570312 0.109375 -2.800781 C 0.109375 -1.023438 1.527344 0.144531 3.703125 0.144531 Z M 3.847656 -1.253906 C 3.085938 -1.253906 2.957031 -2.636719 2.957031 -3.417969 C 2.957031 -4.140625 3.242188 -4.339844 3.515625 -4.339844 C 4.273438 -4.339844 4.40625 -3 4.40625 -2.1875 C 4.40625 -1.4375 4.121094 -1.253906 3.847656 -1.253906 Z M 3.847656 -1.253906 "/></g></g></g><g fill="#e03131" fill-opacity="1"><g transform="translate(280.551161, 181.368459)"><g><path d="M 2.496094 0.152344 C 4.03125 0.152344 4.21875 -1.054688 4.375 -1.054688 C 4.40625 -1.054688 4.449219 -0.96875 4.449219 -0.855469 L 4.449219 -0.625 C 4.449219 -0.0546875 4.824219 0.0664062 5.296875 0.0664062 C 6.078125 0.0664062 6.800781 0.0234375 7.261719 -0.242188 C 7.527344 -0.394531 7.746094 -0.582031 7.746094 -0.96875 C 7.746094 -1.273438 7.613281 -1.40625 7.417969 -1.558594 C 7.261719 -1.679688 7.1875 -2 7.1875 -2.296875 L 7.1875 -4.964844 C 7.1875 -5.539062 6.8125 -5.660156 6.339844 -5.660156 C 5.558594 -5.660156 4.835938 -5.613281 4.375 -5.351562 C 4.109375 -5.199219 3.890625 -5.011719 3.890625 -4.625 C 3.890625 -4.316406 4.023438 -4.1875 4.21875 -4.03125 C 4.375 -3.910156 4.4375 -3.59375 4.4375 -3.296875 L 4.4375 -2.769531 C 4.4375 -2.175781 4.132812 -1.800781 3.8125 -1.800781 C 3.570312 -1.800781 3.351562 -1.988281 3.351562 -2.449219 L 3.351562 -4.964844 C 3.351562 -5.539062 2.976562 -5.660156 2.503906 -5.660156 C 1.726562 -5.660156 1 -5.613281 0.539062 -5.351562 C 0.273438 -5.199219 0.0546875 -5.011719 0.0546875 -4.625 C 0.0546875 -4.316406 0.1875 -4.1875 0.382812 -4.03125 C 0.539062 -3.910156 0.605469 -3.59375 0.605469 -3.296875 L 0.605469 -2.011719 C 0.605469 -0.363281 1.625 0.152344 2.496094 0.152344 Z M 2.496094 0.152344 "/></g></g></g><g fill="#e03131" fill-opacity="1"><g transform="translate(288.300914, 181.368459)"><g><path d="M 3.144531 0.0117188 L 4.933594 0 C 5.679688 0 6.199219 -0.0664062 6.199219 -0.671875 C 6.199219 -0.988281 6.066406 -1.121094 5.84375 -1.242188 C 5.527344 -1.417969 5.527344 -1.558594 5.527344 -2.78125 L 5.527344 -5.988281 C 5.527344 -6.21875 5.660156 -6.273438 5.78125 -6.273438 L 5.800781 -6.273438 C 6.042969 -6.273438 6.308594 -5.890625 6.492188 -5.550781 C 6.648438 -5.261719 6.855469 -4.945312 7.40625 -4.945312 C 7.902344 -4.945312 8.242188 -5.296875 7.933594 -6.824219 C 7.757812 -7.691406 7.503906 -7.855469 7.1875 -7.855469 C 6.746094 -7.855469 6.527344 -7.691406 5.417969 -7.691406 L 2.570312 -7.691406 C 1.734375 -7.691406 1.308594 -7.855469 0.902344 -7.855469 C 0.550781 -7.855469 0.308594 -7.503906 0.175781 -6.824219 C -0.121094 -5.316406 0.175781 -4.945312 0.703125 -4.945312 C 1.253906 -4.945312 1.460938 -5.261719 1.617188 -5.550781 C 1.800781 -5.902344 2.066406 -6.273438 2.308594 -6.273438 L 2.363281 -6.273438 C 2.4375 -6.273438 2.582031 -6.21875 2.582031 -5.988281 L 2.582031 -2.625 C 2.582031 -1.550781 2.515625 -1.40625 2.261719 -1.242188 C 2.042969 -1.097656 1.910156 -0.945312 1.910156 -0.671875 C 1.910156 -0.207031 2.230469 0.0117188 3.144531 0.0117188 Z M 3.144531 0.0117188 "/></g></g></g><g fill="#e03131" fill-opacity="1"><g transform="translate(296.401929, 181.368459)"><g><path d="M 2.496094 0.152344 C 4.03125 0.152344 4.21875 -1.054688 4.375 -1.054688 C 4.40625 -1.054688 4.449219 -0.96875 4.449219 -0.855469 L 4.449219 -0.625 C 4.449219 -0.0546875 4.824219 0.0664062 5.296875 0.0664062 C 6.078125 0.0664062 6.800781 0.0234375 7.261719 -0.242188 C 7.527344 -0.394531 7.746094 -0.582031 7.746094 -0.96875 C 7.746094 -1.273438 7.613281 -1.40625 7.417969 -1.558594 C 7.261719 -1.679688 7.1875 -2 7.1875 -2.296875 L 7.1875 -4.964844 C 7.1875 -5.539062 6.8125 -5.660156 6.339844 -5.660156 C 5.558594 -5.660156 4.835938 -5.613281 4.375 -5.351562 C 4.109375 -5.199219 3.890625 -5.011719 3.890625 -4.625 C 3.890625 -4.316406 4.023438 -4.1875 4.21875 -4.03125 C 4.375 -3.910156 4.4375 -3.59375 4.4375 -3.296875 L 4.4375 -2.769531 C 4.4375 -2.175781 4.132812 -1.800781 3.8125 -1.800781 C 3.570312 -1.800781 3.351562 -1.988281 3.351562 -2.449219 L 3.351562 -4.964844 C 3.351562 -5.539062 2.976562 -5.660156 2.503906 -5.660156 C 1.726562 -5.660156 1 -5.613281 0.539062 -5.351562 C 0.273438 -5.199219 0.0546875 -5.011719 0.0546875 -4.625 C 0.0546875 -4.316406 0.1875 -4.1875 0.382812 -4.03125 C 0.539062 -3.910156 0.605469 -3.59375 0.605469 -3.296875 L 0.605469 -2.011719 C 0.605469 -0.363281 1.625 0.152344 2.496094 0.152344 Z M 2.496094 0.152344 "/></g></g></g><g fill="#e03131" fill-opacity="1"><g transform="translate(304.151682, 181.368459)"><g><path d="M 4.066406 0.144531 C 5.910156 0.144531 7.085938 -1.144531 7.085938 -2.976562 C 7.085938 -4.746094 6.316406 -5.734375 5.054688 -5.734375 C 3.726562 -5.734375 3.363281 -4.527344 3.21875 -4.527344 C 3.152344 -4.527344 3.132812 -4.703125 3.132812 -4.976562 L 3.132812 -7.066406 C 3.132812 -7.636719 2.757812 -7.757812 2.285156 -7.757812 C 1.503906 -7.757812 0.78125 -7.714844 0.320312 -7.449219 C 0.0546875 -7.296875 -0.164062 -7.109375 -0.164062 -6.726562 C -0.164062 -6.417969 -0.03125 -6.285156 0.164062 -6.132812 C 0.320312 -6.011719 0.382812 -5.8125 0.382812 -5.382812 L 0.394531 -2.59375 C 0.394531 -1.726562 0.339844 -1.207031 0.328125 -0.625 C 0.320312 -0.207031 0.636719 0.121094 1.152344 0.121094 C 1.96875 0.121094 2.121094 -0.363281 2.363281 -0.363281 C 2.59375 -0.363281 3.097656 0.144531 4.066406 0.144531 Z M 3.746094 -1.296875 C 3.375 -1.296875 3.132812 -1.746094 3.132812 -2.933594 L 3.132812 -3.109375 C 3.132812 -3.648438 3.339844 -3.878906 3.558594 -3.878906 C 4.078125 -3.878906 4.242188 -3.132812 4.242188 -2.132812 C 4.242188 -1.417969 3.945312 -1.296875 3.746094 -1.296875 Z M 3.746094 -1.296875 "/></g></g></g><g fill="#e03131" fill-opacity="1"><g transform="translate(311.341611, 181.368459)"><g><path d="M 3.328125 0.144531 C 5.207031 0.144531 6.132812 -0.902344 6.132812 -1.605469 C 6.132812 -1.988281 5.910156 -2.230469 5.613281 -2.230469 C 5.460938 -2.230469 5.285156 -2.152344 5.097656 -2.011719 C 4.902344 -1.855469 4.351562 -1.625 3.933594 -1.625 C 3.242188 -1.625 3.085938 -2.03125 3.085938 -2.164062 C 3.085938 -2.273438 3.109375 -2.382812 3.253906 -2.394531 L 5.503906 -2.648438 C 6.042969 -2.703125 6.328125 -3.03125 6.328125 -3.605469 C 6.328125 -4.484375 5.484375 -5.726562 3.375 -5.726562 C 1.515625 -5.726562 0.109375 -4.558594 0.109375 -2.769531 C 0.109375 -1.207031 1.375 0.144531 3.328125 0.144531 Z M 3.21875 -3.066406 C 2.964844 -3.03125 2.945312 -3.164062 2.945312 -3.484375 C 2.945312 -4.140625 3.144531 -4.339844 3.375 -4.339844 C 3.746094 -4.339844 3.855469 -3.757812 3.855469 -3.515625 C 3.855469 -3.253906 3.824219 -3.144531 3.636719 -3.121094 Z M 3.21875 -3.066406 "/></g></g></g><g fill="#e03131" fill-opacity="1"><g transform="translate(317.675331, 181.368459)"><g/></g></g><g fill="#e03131" fill-opacity="1"><g transform="translate(321.133075, 181.368459)"><g><path d="M 3.339844 0.0664062 C 3.957031 0.0664062 4.199219 -0.1875 4.625 -0.636719 C 5.515625 -1.558594 6.261719 -3.207031 6.261719 -4.1875 C 6.261719 -4.515625 6.21875 -4.824219 6.109375 -5.066406 C 6.03125 -5.261719 5.910156 -5.417969 5.757812 -5.539062 C 5.59375 -5.660156 5.382812 -5.726562 5.121094 -5.726562 C 4.910156 -5.726562 4.714844 -5.679688 4.558594 -5.605469 C 4.273438 -5.460938 4.097656 -5.1875 4.097656 -4.8125 C 4.097656 -4.503906 4.21875 -4.132812 4.503906 -3.703125 C 4.605469 -3.550781 4.613281 -3.382812 4.558594 -3.199219 C 4.515625 -3.042969 4.417969 -2.878906 4.285156 -2.703125 C 4.1875 -2.558594 4.066406 -2.582031 4 -2.714844 C 3.769531 -3.152344 3.613281 -3.558594 3.558594 -3.824219 C 3.515625 -4.042969 3.59375 -4.230469 3.691406 -4.382812 C 3.855469 -4.625 3.910156 -4.714844 3.910156 -4.957031 C 3.910156 -5.4375 3.671875 -5.648438 2.671875 -5.648438 L 1.296875 -5.648438 C 0.382812 -5.648438 0.0117188 -5.429688 0.0117188 -4.976562 C 0.0117188 -4.726562 0.132812 -4.515625 0.265625 -4.375 C 0.40625 -4.207031 0.515625 -4.023438 0.617188 -3.726562 C 0.945312 -2.726562 1.285156 -1.976562 1.867188 -0.734375 C 2.121094 -0.207031 2.539062 0.0664062 3.023438 0.0664062 Z M 3.339844 0.0664062 "/></g></g></g><g fill="#e03131" fill-opacity="1"><g transform="translate(327.49973, 181.368459)"><g><path d="M 1.890625 -5.988281 C 2.890625 -5.988281 3.539062 -6.460938 3.539062 -7.175781 C 3.539062 -7.867188 2.890625 -8.316406 1.890625 -8.316406 C 0.855469 -8.316406 0.175781 -7.867188 0.175781 -7.175781 C 0.175781 -6.460938 0.855469 -5.988281 1.890625 -5.988281 Z M 1.539062 0.078125 L 2.527344 0.078125 C 3.582031 0.078125 3.933594 -0.03125 3.933594 -0.617188 C 3.933594 -0.878906 3.835938 -1.066406 3.636719 -1.207031 C 3.460938 -1.339844 3.40625 -1.726562 3.40625 -2.472656 L 3.40625 -4.964844 C 3.40625 -5.539062 3.03125 -5.660156 2.558594 -5.660156 C 1.78125 -5.660156 1.054688 -5.613281 0.59375 -5.351562 C 0.328125 -5.199219 0.109375 -5.011719 0.109375 -4.625 C 0.109375 -4.316406 0.242188 -4.1875 0.441406 -4.03125 C 0.59375 -3.910156 0.660156 -3.59375 0.660156 -3.296875 L 0.660156 -2.460938 C 0.660156 -1.726562 0.605469 -1.339844 0.429688 -1.207031 C 0.230469 -1.066406 0.132812 -0.878906 0.132812 -0.617188 C 0.132812 -0.03125 0.472656 0.078125 1.539062 0.078125 Z M 1.539062 0.078125 "/></g></g></g><g fill="#e03131" fill-opacity="1"><g transform="translate(331.539266, 181.368459)"><g><path d="M 2.175781 0.144531 C 3.4375 0.144531 3.855469 -1.066406 3.988281 -1.066406 C 4.042969 -1.066406 4.066406 -1 4.066406 -0.902344 L 4.066406 -0.625 C 4.066406 -0.0546875 4.4375 0.0664062 4.910156 0.0664062 C 5.691406 0.0664062 6.417969 0.0234375 6.878906 -0.242188 C 7.140625 -0.394531 7.363281 -0.582031 7.363281 -0.96875 C 7.363281 -1.273438 7.230469 -1.40625 7.03125 -1.558594 C 6.878906 -1.679688 6.8125 -2 6.8125 -2.296875 L 6.8125 -7.066406 C 6.8125 -7.636719 6.4375 -7.757812 5.964844 -7.757812 C 5.1875 -7.757812 4.460938 -7.714844 4 -7.449219 C 3.734375 -7.296875 3.515625 -7.109375 3.515625 -6.726562 C 3.515625 -6.417969 3.648438 -6.285156 3.847656 -6.132812 C 3.964844 -6.03125 4.066406 -5.78125 4.066406 -5.527344 L 4.066406 -5.492188 C 4.066406 -5.394531 4.042969 -5.328125 4 -5.328125 C 3.878906 -5.328125 3.636719 -5.734375 2.890625 -5.734375 C 1.144531 -5.734375 0.109375 -4.175781 0.109375 -2.671875 C 0.109375 -0.945312 0.921875 0.144531 2.175781 0.144531 Z M 3.648438 -1.726562 C 3.1875 -1.726562 2.957031 -2.261719 2.957031 -3.527344 C 2.957031 -4.132812 3.230469 -4.308594 3.4375 -4.308594 C 3.824219 -4.308594 4.066406 -3.921875 4.066406 -2.558594 L 4.066406 -2.503906 C 4.066406 -1.96875 3.847656 -1.726562 3.648438 -1.726562 Z M 3.648438 -1.726562 "/></g></g></g><g fill="#e03131" fill-opacity="1"><g transform="translate(338.90482, 181.368459)"><g><path d="M 3.328125 0.144531 C 5.207031 0.144531 6.132812 -0.902344 6.132812 -1.605469 C 6.132812 -1.988281 5.910156 -2.230469 5.613281 -2.230469 C 5.460938 -2.230469 5.285156 -2.152344 5.097656 -2.011719 C 4.902344 -1.855469 4.351562 -1.625 3.933594 -1.625 C 3.242188 -1.625 3.085938 -2.03125 3.085938 -2.164062 C 3.085938 -2.273438 3.109375 -2.382812 3.253906 -2.394531 L 5.503906 -2.648438 C 6.042969 -2.703125 6.328125 -3.03125 6.328125 -3.605469 C 6.328125 -4.484375 5.484375 -5.726562 3.375 -5.726562 C 1.515625 -5.726562 0.109375 -4.558594 0.109375 -2.769531 C 0.109375 -1.207031 1.375 0.144531 3.328125 0.144531 Z M 3.21875 -3.066406 C 2.964844 -3.03125 2.945312 -3.164062 2.945312 -3.484375 C 2.945312 -4.140625 3.144531 -4.339844 3.375 -4.339844 C 3.746094 -4.339844 3.855469 -3.757812 3.855469 -3.515625 C 3.855469 -3.253906 3.824219 -3.144531 3.636719 -3.121094 Z M 3.21875 -3.066406 "/></g></g></g><g fill="#e03131" fill-opacity="1"><g transform="translate(345.238541, 181.368459)"><g><path d="M 3.703125 0.144531 C 5.84375 0.144531 7.253906 -1.023438 7.253906 -2.800781 C 7.253906 -4.570312 5.84375 -5.734375 3.703125 -5.734375 C 1.527344 -5.734375 0.109375 -4.570312 0.109375 -2.800781 C 0.109375 -1.023438 1.527344 0.144531 3.703125 0.144531 Z M 3.847656 -1.253906 C 3.085938 -1.253906 2.957031 -2.636719 2.957031 -3.417969 C 2.957031 -4.140625 3.242188 -4.339844 3.515625 -4.339844 C 4.273438 -4.339844 4.40625 -3 4.40625 -2.1875 C 4.40625 -1.4375 4.121094 -1.253906 3.847656 -1.253906 Z M 3.847656 -1.253906 "/></g></g></g><g fill="#e03131" fill-opacity="1"><g transform="translate(352.593118, 181.368459)"><g><path d="M 2.902344 0.144531 C 4.636719 0.144531 5.921875 -0.382812 5.921875 -1.726562 C 5.921875 -2.625 5.527344 -3.1875 4.011719 -3.671875 C 3.382812 -3.867188 3.308594 -3.957031 3.308594 -4.140625 C 3.308594 -4.207031 3.375 -4.328125 3.503906 -4.328125 C 3.734375 -4.328125 3.890625 -4.1875 4.078125 -4.023438 C 4.285156 -3.835938 4.527344 -3.613281 4.957031 -3.613281 C 5.4375 -3.613281 5.679688 -3.988281 5.679688 -4.363281 C 5.679688 -4.679688 5.539062 -4.945312 5.273438 -5.164062 C 5.03125 -5.351562 4.714844 -5.492188 4.316406 -5.59375 C 3.933594 -5.691406 3.484375 -5.734375 3.011719 -5.734375 C 1.769531 -5.734375 0.253906 -5.132812 0.253906 -3.800781 C 0.253906 -2.921875 0.8125 -2.339844 2.023438 -1.933594 C 2.582031 -1.746094 2.679688 -1.671875 2.679688 -1.496094 C 2.679688 -1.339844 2.582031 -1.261719 2.394531 -1.261719 C 2 -1.261719 1.800781 -1.460938 1.605469 -1.671875 C 1.382812 -1.902344 1.144531 -2.132812 0.625 -2.132812 C 0.285156 -2.132812 0 -1.835938 0 -1.394531 C 0 -0.976562 0.21875 -0.648438 0.582031 -0.40625 C 0.824219 -0.242188 1.121094 -0.121094 1.449219 -0.03125 C 1.890625 0.0898438 2.394531 0.144531 2.902344 0.144531 Z M 2.902344 0.144531 "/></g></g></g><g fill="#e03131" fill-opacity="1"><g transform="translate(189.277598, 195.988496)"><g><path d="M 2.066406 0.144531 C 3.660156 0.144531 3.945312 -0.800781 4.121094 -0.800781 C 4.164062 -0.800781 4.261719 -0.636719 4.296875 -0.558594 C 4.492188 -0.1875 4.902344 0.0976562 5.613281 0.0976562 C 6.484375 0.0976562 6.988281 -0.394531 6.988281 -0.988281 C 6.988281 -1.164062 6.945312 -1.273438 6.878906 -1.363281 C 6.800781 -1.460938 6.679688 -1.515625 6.59375 -1.625 C 6.527344 -1.691406 6.472656 -1.792969 6.460938 -1.957031 L 6.316406 -3.460938 C 6.199219 -4.734375 5.636719 -5.734375 3.527344 -5.734375 C 2.023438 -5.734375 0.472656 -5.199219 0.472656 -4.21875 C 0.472656 -3.734375 0.945312 -3.40625 1.320312 -3.40625 C 1.957031 -3.40625 2.273438 -3.671875 2.484375 -4.042969 C 2.625 -4.296875 2.746094 -4.40625 3.03125 -4.40625 C 3.328125 -4.40625 3.503906 -4.230469 3.558594 -3.78125 L 3.570312 -3.691406 C 3.613281 -3.363281 3.152344 -3.417969 2.679688 -3.375 C 1.296875 -3.242188 0.0546875 -2.824219 0.0546875 -1.625 C 0.0546875 -0.835938 0.472656 0.144531 2.066406 0.144531 Z M 3.382812 -1.21875 C 3.175781 -1.21875 2.824219 -1.4375 2.824219 -2.023438 C 2.824219 -2.394531 2.910156 -2.714844 3.320312 -2.714844 C 3.527344 -2.714844 3.691406 -2.59375 3.726562 -2.308594 L 3.789062 -1.8125 C 3.835938 -1.484375 3.636719 -1.21875 3.382812 -1.21875 Z M 3.382812 -1.21875 "/></g></g></g><g fill="#e03131" fill-opacity="1"><g transform="translate(196.258955, 195.988496)"><g><path d="M 2.902344 0.144531 C 4.636719 0.144531 5.921875 -0.382812 5.921875 -1.726562 C 5.921875 -2.625 5.527344 -3.1875 4.011719 -3.671875 C 3.382812 -3.867188 3.308594 -3.957031 3.308594 -4.140625 C 3.308594 -4.207031 3.375 -4.328125 3.503906 -4.328125 C 3.734375 -4.328125 3.890625 -4.1875 4.078125 -4.023438 C 4.285156 -3.835938 4.527344 -3.613281 4.957031 -3.613281 C 5.4375 -3.613281 5.679688 -3.988281 5.679688 -4.363281 C 5.679688 -4.679688 5.539062 -4.945312 5.273438 -5.164062 C 5.03125 -5.351562 4.714844 -5.492188 4.316406 -5.59375 C 3.933594 -5.691406 3.484375 -5.734375 3.011719 -5.734375 C 1.769531 -5.734375 0.253906 -5.132812 0.253906 -3.800781 C 0.253906 -2.921875 0.8125 -2.339844 2.023438 -1.933594 C 2.582031 -1.746094 2.679688 -1.671875 2.679688 -1.496094 C 2.679688 -1.339844 2.582031 -1.261719 2.394531 -1.261719 C 2 -1.261719 1.800781 -1.460938 1.605469 -1.671875 C 1.382812 -1.902344 1.144531 -2.132812 0.625 -2.132812 C 0.285156 -2.132812 0 -1.835938 0 -1.394531 C 0 -0.976562 0.21875 -0.648438 0.582031 -0.40625 C 0.824219 -0.242188 1.121094 -0.121094 1.449219 -0.03125 C 1.890625 0.0898438 2.394531 0.144531 2.902344 0.144531 Z M 2.902344 0.144531 "/></g></g></g><g fill="#e03131" fill-opacity="1"><g transform="translate(202.241411, 195.988496)"><g/></g></g><g fill="#e03131" fill-opacity="1"><g transform="translate(205.699156, 195.988496)"><g><path d="M 2.902344 0.144531 C 4.636719 0.144531 5.921875 -0.382812 5.921875 -1.726562 C 5.921875 -2.625 5.527344 -3.1875 4.011719 -3.671875 C 3.382812 -3.867188 3.308594 -3.957031 3.308594 -4.140625 C 3.308594 -4.207031 3.375 -4.328125 3.503906 -4.328125 C 3.734375 -4.328125 3.890625 -4.1875 4.078125 -4.023438 C 4.285156 -3.835938 4.527344 -3.613281 4.957031 -3.613281 C 5.4375 -3.613281 5.679688 -3.988281 5.679688 -4.363281 C 5.679688 -4.679688 5.539062 -4.945312 5.273438 -5.164062 C 5.03125 -5.351562 4.714844 -5.492188 4.316406 -5.59375 C 3.933594 -5.691406 3.484375 -5.734375 3.011719 -5.734375 C 1.769531 -5.734375 0.253906 -5.132812 0.253906 -3.800781 C 0.253906 -2.921875 0.8125 -2.339844 2.023438 -1.933594 C 2.582031 -1.746094 2.679688 -1.671875 2.679688 -1.496094 C 2.679688 -1.339844 2.582031 -1.261719 2.394531 -1.261719 C 2 -1.261719 1.800781 -1.460938 1.605469 -1.671875 C 1.382812 -1.902344 1.144531 -2.132812 0.625 -2.132812 C 0.285156 -2.132812 0 -1.835938 0 -1.394531 C 0 -0.976562 0.21875 -0.648438 0.582031 -0.40625 C 0.824219 -0.242188 1.121094 -0.121094 1.449219 -0.03125 C 1.890625 0.0898438 2.394531 0.144531 2.902344 0.144531 Z M 2.902344 0.144531 "/></g></g></g><g fill="#e03131" fill-opacity="1"><g transform="translate(211.681613, 195.988496)"><g><path d="M 1.550781 0.0546875 L 2.539062 0.0546875 C 3.59375 0.0546875 3.945312 -0.0546875 3.945312 -0.636719 C 3.945312 -0.902344 3.847656 -1.085938 3.648438 -1.230469 C 3.472656 -1.363281 3.417969 -1.746094 3.417969 -2.472656 L 3.417969 -2.679688 C 3.417969 -3.394531 3.714844 -3.78125 4.078125 -3.78125 C 4.199219 -3.78125 4.382812 -3.613281 4.449219 -3.109375 L 4.550781 -2.382812 C 4.660156 -1.59375 4.550781 -1.363281 4.394531 -1.230469 C 4.21875 -1.078125 4.152344 -0.910156 4.152344 -0.660156 C 4.152344 -0.164062 4.460938 0.0546875 5.484375 0.0546875 C 5.933594 0.0546875 6.273438 0.0546875 6.636719 0.0429688 C 7.449219 0.0117188 7.757812 -0.242188 7.757812 -0.691406 C 7.757812 -0.910156 7.726562 -1.121094 7.570312 -1.261719 C 7.371094 -1.449219 7.339844 -1.824219 7.285156 -2.449219 L 7.175781 -3.679688 C 7.019531 -5.375 6.109375 -5.734375 5.339844 -5.734375 C 3.769531 -5.734375 3.625 -4.527344 3.472656 -4.527344 C 3.4375 -4.527344 3.417969 -4.558594 3.417969 -4.679688 L 3.417969 -7.066406 C 3.417969 -7.636719 3.03125 -7.757812 2.558594 -7.757812 C 1.78125 -7.757812 1.054688 -7.714844 0.59375 -7.449219 C 0.328125 -7.296875 0.109375 -7.109375 0.109375 -6.726562 C 0.109375 -6.417969 0.242188 -6.285156 0.441406 -6.132812 C 0.59375 -6.011719 0.660156 -5.691406 0.660156 -5.394531 L 0.660156 -2.460938 C 0.660156 -1.746094 0.617188 -1.363281 0.441406 -1.230469 C 0.242188 -1.085938 0.144531 -0.902344 0.144531 -0.636719 C 0.144531 -0.0546875 0.484375 0.0546875 1.550781 0.0546875 Z M 1.550781 0.0546875 "/></g></g></g><g fill="#e03131" fill-opacity="1"><g transform="translate(219.486244, 195.988496)"><g><path d="M 2.066406 0.144531 C 3.660156 0.144531 3.945312 -0.800781 4.121094 -0.800781 C 4.164062 -0.800781 4.261719 -0.636719 4.296875 -0.558594 C 4.492188 -0.1875 4.902344 0.0976562 5.613281 0.0976562 C 6.484375 0.0976562 6.988281 -0.394531 6.988281 -0.988281 C 6.988281 -1.164062 6.945312 -1.273438 6.878906 -1.363281 C 6.800781 -1.460938 6.679688 -1.515625 6.59375 -1.625 C 6.527344 -1.691406 6.472656 -1.792969 6.460938 -1.957031 L 6.316406 -3.460938 C 6.199219 -4.734375 5.636719 -5.734375 3.527344 -5.734375 C 2.023438 -5.734375 0.472656 -5.199219 0.472656 -4.21875 C 0.472656 -3.734375 0.945312 -3.40625 1.320312 -3.40625 C 1.957031 -3.40625 2.273438 -3.671875 2.484375 -4.042969 C 2.625 -4.296875 2.746094 -4.40625 3.03125 -4.40625 C 3.328125 -4.40625 3.503906 -4.230469 3.558594 -3.78125 L 3.570312 -3.691406 C 3.613281 -3.363281 3.152344 -3.417969 2.679688 -3.375 C 1.296875 -3.242188 0.0546875 -2.824219 0.0546875 -1.625 C 0.0546875 -0.835938 0.472656 0.144531 2.066406 0.144531 Z M 3.382812 -1.21875 C 3.175781 -1.21875 2.824219 -1.4375 2.824219 -2.023438 C 2.824219 -2.394531 2.910156 -2.714844 3.320312 -2.714844 C 3.527344 -2.714844 3.691406 -2.59375 3.726562 -2.308594 L 3.789062 -1.8125 C 3.835938 -1.484375 3.636719 -1.21875 3.382812 -1.21875 Z M 3.382812 -1.21875 "/></g></g></g><g fill="#e03131" fill-opacity="1"><g transform="translate(226.467601, 195.988496)"><g><path d="M 2.175781 0.144531 C 3.4375 0.144531 3.855469 -1.066406 3.988281 -1.066406 C 4.042969 -1.066406 4.066406 -1 4.066406 -0.902344 L 4.066406 -0.625 C 4.066406 -0.0546875 4.4375 0.0664062 4.910156 0.0664062 C 5.691406 0.0664062 6.417969 0.0234375 6.878906 -0.242188 C 7.140625 -0.394531 7.363281 -0.582031 7.363281 -0.96875 C 7.363281 -1.273438 7.230469 -1.40625 7.03125 -1.558594 C 6.878906 -1.679688 6.8125 -2 6.8125 -2.296875 L 6.8125 -7.066406 C 6.8125 -7.636719 6.4375 -7.757812 5.964844 -7.757812 C 5.1875 -7.757812 4.460938 -7.714844 4 -7.449219 C 3.734375 -7.296875 3.515625 -7.109375 3.515625 -6.726562 C 3.515625 -6.417969 3.648438 -6.285156 3.847656 -6.132812 C 3.964844 -6.03125 4.066406 -5.78125 4.066406 -5.527344 L 4.066406 -5.492188 C 4.066406 -5.394531 4.042969 -5.328125 4 -5.328125 C 3.878906 -5.328125 3.636719 -5.734375 2.890625 -5.734375 C 1.144531 -5.734375 0.109375 -4.175781 0.109375 -2.671875 C 0.109375 -0.945312 0.921875 0.144531 2.175781 0.144531 Z M 3.648438 -1.726562 C 3.1875 -1.726562 2.957031 -2.261719 2.957031 -3.527344 C 2.957031 -4.132812 3.230469 -4.308594 3.4375 -4.308594 C 3.824219 -4.308594 4.066406 -3.921875 4.066406 -2.558594 L 4.066406 -2.503906 C 4.066406 -1.96875 3.847656 -1.726562 3.648438 -1.726562 Z M 3.648438 -1.726562 "/></g></g></g><g fill="#e03131" fill-opacity="1"><g transform="translate(233.833155, 195.988496)"><g><path d="M 3.703125 0.144531 C 5.84375 0.144531 7.253906 -1.023438 7.253906 -2.800781 C 7.253906 -4.570312 5.84375 -5.734375 3.703125 -5.734375 C 1.527344 -5.734375 0.109375 -4.570312 0.109375 -2.800781 C 0.109375 -1.023438 1.527344 0.144531 3.703125 0.144531 Z M 3.847656 -1.253906 C 3.085938 -1.253906 2.957031 -2.636719 2.957031 -3.417969 C 2.957031 -4.140625 3.242188 -4.339844 3.515625 -4.339844 C 4.273438 -4.339844 4.40625 -3 4.40625 -2.1875 C 4.40625 -1.4375 4.121094 -1.253906 3.847656 -1.253906 Z M 3.847656 -1.253906 "/></g></g></g><g fill="#e03131" fill-opacity="1"><g transform="translate(241.187732, 195.988496)"><g><path d="M 10.140625 -5.042969 C 10.074219 -5.199219 9.976562 -5.339844 9.855469 -5.460938 C 9.667969 -5.625 9.429688 -5.726562 9.109375 -5.726562 C 8.921875 -5.726562 8.734375 -5.679688 8.570312 -5.582031 C 8.308594 -5.417969 8.121094 -5.132812 8.121094 -4.746094 C 8.121094 -4.4375 8.207031 -4.1875 8.382812 -3.902344 C 8.539062 -3.648438 8.636719 -3.449219 8.558594 -3.207031 C 8.503906 -3.042969 8.460938 -2.902344 8.296875 -2.714844 C 8.1875 -2.59375 8.078125 -2.59375 8.011719 -2.726562 C 7.78125 -3.164062 7.605469 -3.558594 7.550781 -3.824219 C 7.503906 -4.042969 7.59375 -4.230469 7.679688 -4.382812 C 7.824219 -4.625 7.902344 -4.714844 7.902344 -4.957031 C 7.902344 -5.4375 7.660156 -5.714844 6.660156 -5.714844 L 4.988281 -5.726562 C 4.40625 -5.726562 4.175781 -5.4375 4.164062 -5.085938 C 4.152344 -4.878906 4.253906 -4.636719 4.484375 -4.429688 C 4.59375 -4.339844 4.679688 -4.21875 4.679688 -3.957031 C 4.679688 -3.59375 4.484375 -3.097656 4.242188 -2.824219 C 4.132812 -2.691406 4.023438 -2.703125 3.957031 -2.835938 C 3.726562 -3.273438 3.613281 -3.558594 3.558594 -3.824219 C 3.515625 -4.042969 3.605469 -4.230469 3.691406 -4.382812 C 3.835938 -4.625 3.910156 -4.714844 3.910156 -4.957031 C 3.910156 -5.4375 3.671875 -5.648438 2.671875 -5.648438 L 1.296875 -5.648438 C 0.382812 -5.648438 0.0117188 -5.429688 0.0117188 -4.976562 C 0.0117188 -4.726562 0.132812 -4.515625 0.265625 -4.375 C 0.40625 -4.207031 0.527344 -4.023438 0.617188 -3.726562 C 0.96875 -2.726562 1.285156 -1.976562 1.867188 -0.734375 C 2.121094 -0.207031 2.539062 0.0664062 3.109375 0.0664062 L 3.339844 0.0664062 C 4 0.0664062 4.253906 -0.132812 4.648438 -0.617188 C 4.878906 -0.902344 5.085938 -1.1875 5.285156 -1.484375 C 5.363281 -1.59375 5.449219 -1.605469 5.515625 -1.472656 C 5.636719 -1.242188 5.734375 -1 5.855469 -0.734375 C 6.109375 -0.207031 6.527344 0.0664062 7.097656 0.0664062 L 7.503906 0.0664062 C 7.933594 0.0664062 8.417969 -0.351562 8.898438 -0.945312 C 9.625 -1.847656 10.285156 -3.164062 10.285156 -4.175781 C 10.285156 -4.472656 10.25 -4.78125 10.140625 -5.042969 Z M 10.140625 -5.042969 "/></g></g></g><g fill="#e03131" fill-opacity="1"><g transform="translate(251.571955, 195.988496)"><g><path d="M 1.890625 -5.988281 C 2.890625 -5.988281 3.539062 -6.460938 3.539062 -7.175781 C 3.539062 -7.867188 2.890625 -8.316406 1.890625 -8.316406 C 0.855469 -8.316406 0.175781 -7.867188 0.175781 -7.175781 C 0.175781 -6.460938 0.855469 -5.988281 1.890625 -5.988281 Z M 1.539062 0.078125 L 2.527344 0.078125 C 3.582031 0.078125 3.933594 -0.03125 3.933594 -0.617188 C 3.933594 -0.878906 3.835938 -1.066406 3.636719 -1.207031 C 3.460938 -1.339844 3.40625 -1.726562 3.40625 -2.472656 L 3.40625 -4.964844 C 3.40625 -5.539062 3.03125 -5.660156 2.558594 -5.660156 C 1.78125 -5.660156 1.054688 -5.613281 0.59375 -5.351562 C 0.328125 -5.199219 0.109375 -5.011719 0.109375 -4.625 C 0.109375 -4.316406 0.242188 -4.1875 0.441406 -4.03125 C 0.59375 -3.910156 0.660156 -3.59375 0.660156 -3.296875 L 0.660156 -2.460938 C 0.660156 -1.726562 0.605469 -1.339844 0.429688 -1.207031 C 0.230469 -1.066406 0.132812 -0.878906 0.132812 -0.617188 C 0.132812 -0.03125 0.472656 0.078125 1.539062 0.078125 Z M 1.539062 0.078125 "/></g></g></g><g fill="#e03131" fill-opacity="1"><g transform="translate(255.61149, 195.988496)"><g><path d="M 1.539062 0.0546875 L 2.527344 0.0546875 C 3.582031 0.0546875 3.933594 -0.0546875 3.933594 -0.636719 C 3.933594 -0.902344 3.835938 -1.085938 3.636719 -1.230469 C 3.460938 -1.363281 3.40625 -1.746094 3.40625 -2.496094 L 3.40625 -2.558594 C 3.40625 -3.429688 3.679688 -3.78125 4.054688 -3.78125 C 4.253906 -3.78125 4.382812 -3.613281 4.449219 -3.109375 L 4.550781 -2.382812 C 4.648438 -1.660156 4.539062 -1.375 4.394531 -1.230469 C 4.242188 -1.078125 4.140625 -0.976562 4.140625 -0.636719 C 4.140625 -0.175781 4.460938 0.0546875 5.484375 0.0546875 C 5.933594 0.0546875 6.273438 0.0546875 6.636719 0.0429688 C 7.449219 0.0117188 7.757812 -0.242188 7.757812 -0.691406 C 7.757812 -0.933594 7.714844 -1.121094 7.570312 -1.261719 C 7.382812 -1.460938 7.363281 -1.625 7.285156 -2.449219 L 7.175781 -3.679688 C 7.019531 -5.375 6.109375 -5.734375 5.339844 -5.734375 C 3.769531 -5.734375 3.625 -4.527344 3.472656 -4.527344 C 3.429688 -4.527344 3.40625 -4.582031 3.40625 -4.691406 L 3.40625 -4.957031 C 3.40625 -5.527344 3.03125 -5.648438 2.558594 -5.648438 C 1.78125 -5.648438 1.054688 -5.605469 0.59375 -5.339844 C 0.328125 -5.1875 0.109375 -5 0.109375 -4.613281 C 0.109375 -4.308594 0.242188 -4.175781 0.441406 -4.023438 C 0.59375 -3.902344 0.660156 -3.582031 0.660156 -3.285156 L 0.660156 -2.484375 C 0.660156 -1.746094 0.605469 -1.363281 0.429688 -1.230469 C 0.230469 -1.085938 0.132812 -0.902344 0.132812 -0.636719 C 0.132812 -0.0546875 0.472656 0.0546875 1.539062 0.0546875 Z M 1.539062 0.0546875 "/></g></g></g><g fill="#e03131" fill-opacity="1"><g transform="translate(263.416121, 195.988496)"><g><path d="M 5.308594 -1.679688 C 6.023438 -2.011719 6.382812 -2.59375 6.382812 -3.472656 C 6.382812 -4.152344 6.109375 -4.726562 5.59375 -5.121094 C 6.375 -5.261719 6.910156 -5.691406 6.910156 -6.351562 C 6.910156 -6.902344 6.515625 -7.316406 5.84375 -7.316406 C 5.1875 -7.316406 4.746094 -6.835938 4.746094 -6.230469 C 4.746094 -5.734375 4.429688 -5.667969 4.042969 -5.703125 C 3.855469 -5.726562 3.660156 -5.734375 3.449219 -5.734375 C 1.527344 -5.734375 0.375 -4.835938 0.375 -3.472656 C 0.375 -1.96875 1.472656 -1.109375 2.855469 -1.011719 C 2.867188 -1.011719 2.867188 -1.011719 2.867188 -1.011719 L 2.964844 -1.011719 C 3.769531 -0.957031 4.097656 -0.308594 4.097656 0.121094 C 4.097656 0.40625 3.957031 0.636719 3.636719 0.636719 C 3.4375 0.636719 3.308594 0.539062 3.207031 0.40625 C 3.132812 0.296875 3.066406 0.175781 3.011719 0.0429688 C 2.757812 -0.515625 2.296875 -0.8125 1.472656 -0.8125 C 0.878906 -0.8125 0.21875 -0.472656 0.21875 0.265625 C 0.21875 0.800781 0.582031 1.242188 1.1875 1.550781 C 1.757812 1.835938 2.558594 2 3.496094 2 C 5.417969 2 6.789062 1.1875 6.789062 -0.0429688 C 6.789062 -0.835938 6.175781 -1.394531 5.308594 -1.679688 Z M 3.253906 -4.394531 C 3.613281 -4.394531 3.878906 -3.625 3.878906 -2.824219 C 3.878906 -2.570312 3.757812 -2.40625 3.550781 -2.40625 C 3.207031 -2.40625 2.957031 -3.03125 2.957031 -4 C 2.957031 -4.273438 3.078125 -4.394531 3.253906 -4.394531 Z M 3.253906 -4.394531 "/></g></g></g><g fill="#e03131" fill-opacity="1"><g transform="translate(270.452369, 195.988496)"><g/></g></g><g fill="#e03131" fill-opacity="1"><g transform="translate(273.910113, 195.988496)"><g><path d="M 1.539062 0.0664062 L 2.527344 0.0664062 C 3.496094 0.0664062 3.835938 -0.121094 3.835938 -0.617188 C 3.835938 -0.890625 3.757812 -1.066406 3.636719 -1.230469 C 3.515625 -1.394531 3.40625 -1.726562 3.40625 -2.472656 L 3.40625 -2.558594 C 3.40625 -3.308594 3.636719 -3.78125 4.054688 -3.78125 C 4.242188 -3.78125 4.503906 -3.613281 4.503906 -3.109375 L 4.503906 -2.382812 C 4.503906 -1.8125 4.40625 -1.417969 4.273438 -1.242188 C 4.175781 -1.109375 4.066406 -0.910156 4.066406 -0.625 C 4.066406 -0.164062 4.375 0.0546875 5.085938 0.0546875 L 6.714844 0.0546875 C 7.429688 0.0546875 7.714844 -0.1875 7.714844 -0.636719 C 7.714844 -0.933594 7.605469 -1.121094 7.484375 -1.242188 C 7.328125 -1.394531 7.253906 -1.824219 7.253906 -2.449219 L 7.253906 -2.558594 C 7.253906 -3.308594 7.527344 -3.78125 7.910156 -3.78125 C 8.097656 -3.78125 8.316406 -3.660156 8.351562 -3.109375 L 8.394531 -2.382812 C 8.4375 -1.703125 8.394531 -1.363281 8.242188 -1.242188 C 8.054688 -1.085938 7.988281 -0.867188 7.988281 -0.648438 C 7.988281 -0.1875 8.308594 0.0546875 9.328125 0.0546875 C 9.78125 0.0546875 10.121094 0.0546875 10.484375 0.0429688 C 11.296875 0.0117188 11.601562 -0.242188 11.601562 -0.691406 C 11.601562 -0.910156 11.546875 -1.132812 11.417969 -1.261719 C 11.21875 -1.460938 11.164062 -1.746094 11.140625 -2.261719 L 11.074219 -3.679688 C 11 -5.375 9.957031 -5.734375 9.1875 -5.734375 C 7.613281 -5.734375 7.4375 -4.527344 7.253906 -4.527344 C 7.230469 -4.527344 7.1875 -4.539062 7.121094 -4.691406 C 6.734375 -5.582031 5.910156 -5.734375 5.296875 -5.734375 C 3.726562 -5.734375 3.625 -4.527344 3.472656 -4.527344 C 3.429688 -4.527344 3.40625 -4.582031 3.40625 -4.734375 L 3.40625 -4.988281 C 3.40625 -5.394531 3.1875 -5.648438 2.570312 -5.648438 C 1.867188 -5.648438 1.054688 -5.59375 0.59375 -5.339844 C 0.21875 -5.132812 0.109375 -4.957031 0.109375 -4.613281 C 0.109375 -4.328125 0.242188 -4.175781 0.429688 -4.023438 C 0.605469 -3.878906 0.660156 -3.613281 0.660156 -3.285156 L 0.660156 -2.460938 C 0.660156 -1.726562 0.59375 -1.363281 0.429688 -1.242188 C 0.230469 -1.097656 0.132812 -0.890625 0.132812 -0.617188 C 0.132812 -0.121094 0.472656 0.0664062 1.539062 0.0664062 Z M 1.539062 0.0664062 "/></g></g></g><g fill="#e03131" fill-opacity="1"><g transform="translate(285.556698, 195.988496)"><g><path d="M 2.066406 0.144531 C 3.660156 0.144531 3.945312 -0.800781 4.121094 -0.800781 C 4.164062 -0.800781 4.261719 -0.636719 4.296875 -0.558594 C 4.492188 -0.1875 4.902344 0.0976562 5.613281 0.0976562 C 6.484375 0.0976562 6.988281 -0.394531 6.988281 -0.988281 C 6.988281 -1.164062 6.945312 -1.273438 6.878906 -1.363281 C 6.800781 -1.460938 6.679688 -1.515625 6.59375 -1.625 C 6.527344 -1.691406 6.472656 -1.792969 6.460938 -1.957031 L 6.316406 -3.460938 C 6.199219 -4.734375 5.636719 -5.734375 3.527344 -5.734375 C 2.023438 -5.734375 0.472656 -5.199219 0.472656 -4.21875 C 0.472656 -3.734375 0.945312 -3.40625 1.320312 -3.40625 C 1.957031 -3.40625 2.273438 -3.671875 2.484375 -4.042969 C 2.625 -4.296875 2.746094 -4.40625 3.03125 -4.40625 C 3.328125 -4.40625 3.503906 -4.230469 3.558594 -3.78125 L 3.570312 -3.691406 C 3.613281 -3.363281 3.152344 -3.417969 2.679688 -3.375 C 1.296875 -3.242188 0.0546875 -2.824219 0.0546875 -1.625 C 0.0546875 -0.835938 0.472656 0.144531 2.066406 0.144531 Z M 3.382812 -1.21875 C 3.175781 -1.21875 2.824219 -1.4375 2.824219 -2.023438 C 2.824219 -2.394531 2.910156 -2.714844 3.320312 -2.714844 C 3.527344 -2.714844 3.691406 -2.59375 3.726562 -2.308594 L 3.789062 -1.8125 C 3.835938 -1.484375 3.636719 -1.21875 3.382812 -1.21875 Z M 3.382812 -1.21875 "/></g></g></g><g fill="#e03131" fill-opacity="1"><g transform="translate(292.538055, 195.988496)"><g><path d="M 2.835938 0.132812 C 4 0.132812 5 -0.515625 5.109375 -1.429688 C 5.164062 -1.890625 4.789062 -2.042969 4.382812 -1.890625 C 4.21875 -1.824219 4.011719 -1.769531 3.890625 -1.769531 C 3.558594 -1.769531 3.394531 -2.011719 3.394531 -2.351562 L 3.394531 -3.890625 C 3.394531 -4.140625 3.550781 -4.242188 3.746094 -4.242188 L 4.417969 -4.242188 C 4.769531 -4.242188 5.03125 -4.605469 5.03125 -5.109375 C 5.03125 -5.503906 4.835938 -5.59375 4.550781 -5.59375 L 3.679688 -5.59375 C 3.40625 -5.59375 3.375 -5.636719 3.375 -6.296875 L 3.375 -6.78125 C 3.375 -7.175781 3.351562 -7.449219 2.726562 -7.449219 C 2.328125 -7.449219 1.902344 -7.261719 1.503906 -6.976562 C 1.097656 -6.691406 0.703125 -6.316406 0.417969 -5.902344 L 0.242188 -5.648438 C 0.03125 -5.339844 -0.0664062 -5.011719 -0.0664062 -4.734375 C -0.0664062 -4.375 0.078125 -4.21875 0.339844 -4.21875 L 0.40625 -4.21875 C 0.625 -4.21875 0.660156 -4.066406 0.660156 -3.902344 L 0.660156 -1.847656 C 0.660156 -0.394531 1.515625 0.132812 2.835938 0.132812 Z M 2.835938 0.132812 "/></g></g></g><g fill="#e03131" fill-opacity="1"><g transform="translate(297.752116, 195.988496)"><g><path d="M 3.328125 0.144531 C 5.207031 0.144531 6.132812 -0.902344 6.132812 -1.605469 C 6.132812 -1.988281 5.910156 -2.230469 5.613281 -2.230469 C 5.460938 -2.230469 5.285156 -2.152344 5.097656 -2.011719 C 4.902344 -1.855469 4.351562 -1.625 3.933594 -1.625 C 3.242188 -1.625 3.085938 -2.03125 3.085938 -2.164062 C 3.085938 -2.273438 3.109375 -2.382812 3.253906 -2.394531 L 5.503906 -2.648438 C 6.042969 -2.703125 6.328125 -3.03125 6.328125 -3.605469 C 6.328125 -4.484375 5.484375 -5.726562 3.375 -5.726562 C 1.515625 -5.726562 0.109375 -4.558594 0.109375 -2.769531 C 0.109375 -1.207031 1.375 0.144531 3.328125 0.144531 Z M 3.21875 -3.066406 C 2.964844 -3.03125 2.945312 -3.164062 2.945312 -3.484375 C 2.945312 -4.140625 3.144531 -4.339844 3.375 -4.339844 C 3.746094 -4.339844 3.855469 -3.757812 3.855469 -3.515625 C 3.855469 -3.253906 3.824219 -3.144531 3.636719 -3.121094 Z M 3.21875 -3.066406 "/></g></g></g><g fill="#e03131" fill-opacity="1"><g transform="translate(304.085837, 195.988496)"><g><path d="M 1.539062 0.078125 L 2.527344 0.078125 C 3.582031 0.078125 3.933594 -0.03125 3.933594 -0.617188 C 3.933594 -0.878906 3.835938 -1.066406 3.636719 -1.207031 C 3.460938 -1.339844 3.40625 -1.726562 3.40625 -2.472656 L 3.40625 -2.570312 C 3.40625 -3.121094 3.515625 -3.703125 3.703125 -3.703125 C 3.769531 -3.703125 3.824219 -3.679688 3.824219 -3.570312 C 3.824219 -2.976562 4.316406 -2.59375 4.921875 -2.59375 C 5.605469 -2.59375 6.054688 -3.21875 6.054688 -4.164062 C 6.054688 -5.316406 5.339844 -5.734375 4.660156 -5.734375 C 3.660156 -5.734375 3.285156 -4.527344 3.152344 -4.527344 C 3.097656 -4.527344 3.085938 -4.625 3.085938 -4.714844 L 3.085938 -5.078125 C 3.085938 -5.648438 2.8125 -5.660156 2.558594 -5.660156 C 1.78125 -5.660156 1.054688 -5.613281 0.59375 -5.351562 C 0.328125 -5.199219 0.109375 -5.011719 0.109375 -4.625 C 0.109375 -4.316406 0.242188 -4.1875 0.441406 -4.03125 C 0.59375 -3.910156 0.660156 -3.59375 0.660156 -3.296875 L 0.660156 -2.460938 C 0.660156 -1.726562 0.605469 -1.339844 0.429688 -1.207031 C 0.230469 -1.066406 0.132812 -0.878906 0.132812 -0.617188 C 0.132812 -0.03125 0.472656 0.078125 1.539062 0.078125 Z M 1.539062 0.078125 "/></g></g></g><g fill="#e03131" fill-opacity="1"><g transform="translate(310.134151, 195.988496)"><g><path d="M 1.890625 -5.988281 C 2.890625 -5.988281 3.539062 -6.460938 3.539062 -7.175781 C 3.539062 -7.867188 2.890625 -8.316406 1.890625 -8.316406 C 0.855469 -8.316406 0.175781 -7.867188 0.175781 -7.175781 C 0.175781 -6.460938 0.855469 -5.988281 1.890625 -5.988281 Z M 1.539062 0.078125 L 2.527344 0.078125 C 3.582031 0.078125 3.933594 -0.03125 3.933594 -0.617188 C 3.933594 -0.878906 3.835938 -1.066406 3.636719 -1.207031 C 3.460938 -1.339844 3.40625 -1.726562 3.40625 -2.472656 L 3.40625 -4.964844 C 3.40625 -5.539062 3.03125 -5.660156 2.558594 -5.660156 C 1.78125 -5.660156 1.054688 -5.613281 0.59375 -5.351562 C 0.328125 -5.199219 0.109375 -5.011719 0.109375 -4.625 C 0.109375 -4.316406 0.242188 -4.1875 0.441406 -4.03125 C 0.59375 -3.910156 0.660156 -3.59375 0.660156 -3.296875 L 0.660156 -2.460938 C 0.660156 -1.726562 0.605469 -1.339844 0.429688 -1.207031 C 0.230469 -1.066406 0.132812 -0.878906 0.132812 -0.617188 C 0.132812 -0.03125 0.472656 0.078125 1.539062 0.078125 Z M 1.539062 0.078125 "/></g></g></g><g fill="#e03131" fill-opacity="1"><g transform="translate(314.173686, 195.988496)"><g><path d="M 2.066406 0.144531 C 3.660156 0.144531 3.945312 -0.800781 4.121094 -0.800781 C 4.164062 -0.800781 4.261719 -0.636719 4.296875 -0.558594 C 4.492188 -0.1875 4.902344 0.0976562 5.613281 0.0976562 C 6.484375 0.0976562 6.988281 -0.394531 6.988281 -0.988281 C 6.988281 -1.164062 6.945312 -1.273438 6.878906 -1.363281 C 6.800781 -1.460938 6.679688 -1.515625 6.59375 -1.625 C 6.527344 -1.691406 6.472656 -1.792969 6.460938 -1.957031 L 6.316406 -3.460938 C 6.199219 -4.734375 5.636719 -5.734375 3.527344 -5.734375 C 2.023438 -5.734375 0.472656 -5.199219 0.472656 -4.21875 C 0.472656 -3.734375 0.945312 -3.40625 1.320312 -3.40625 C 1.957031 -3.40625 2.273438 -3.671875 2.484375 -4.042969 C 2.625 -4.296875 2.746094 -4.40625 3.03125 -4.40625 C 3.328125 -4.40625 3.503906 -4.230469 3.558594 -3.78125 L 3.570312 -3.691406 C 3.613281 -3.363281 3.152344 -3.417969 2.679688 -3.375 C 1.296875 -3.242188 0.0546875 -2.824219 0.0546875 -1.625 C 0.0546875 -0.835938 0.472656 0.144531 2.066406 0.144531 Z M 3.382812 -1.21875 C 3.175781 -1.21875 2.824219 -1.4375 2.824219 -2.023438 C 2.824219 -2.394531 2.910156 -2.714844 3.320312 -2.714844 C 3.527344 -2.714844 3.691406 -2.59375 3.726562 -2.308594 L 3.789062 -1.8125 C 3.835938 -1.484375 3.636719 -1.21875 3.382812 -1.21875 Z M 3.382812 -1.21875 "/></g></g></g><g fill="#e03131" fill-opacity="1"><g transform="translate(321.155043, 195.988496)"><g><path d="M 1.550781 0.078125 L 2.539062 0.078125 C 3.59375 0.078125 3.945312 -0.03125 3.945312 -0.617188 C 3.945312 -0.878906 3.847656 -1.066406 3.648438 -1.207031 C 3.472656 -1.339844 3.417969 -1.726562 3.417969 -2.472656 L 3.417969 -7.066406 C 3.417969 -7.636719 3.03125 -7.757812 2.558594 -7.757812 C 1.78125 -7.757812 1.054688 -7.714844 0.59375 -7.449219 C 0.328125 -7.296875 0.109375 -7.109375 0.109375 -6.726562 C 0.109375 -6.417969 0.242188 -6.285156 0.441406 -6.132812 C 0.59375 -6.011719 0.660156 -5.691406 0.660156 -5.394531 L 0.660156 -2.460938 C 0.660156 -1.726562 0.617188 -1.339844 0.441406 -1.207031 C 0.242188 -1.066406 0.144531 -0.878906 0.144531 -0.617188 C 0.144531 -0.03125 0.484375 0.078125 1.550781 0.078125 Z M 1.550781 0.078125 "/></g></g></g><g fill="#e03131" fill-opacity="1"><g transform="translate(325.205545, 195.988496)"><g><path d="M 1.878906 -2.933594 C 2.164062 -2.933594 2.339844 -3.1875 2.484375 -3.472656 C 2.855469 -3.964844 3.429688 -5.679688 3.417969 -6.230469 C 3.40625 -7.253906 2.824219 -7.835938 1.878906 -7.835938 C 0.933594 -7.835938 0.328125 -7.230469 0.328125 -6.207031 C 0.320312 -5.515625 0.890625 -3.976562 1.261719 -3.472656 C 1.417969 -3.1875 1.558594 -2.933594 1.878906 -2.933594 Z M 1.855469 0.121094 C 2.679688 0.121094 3.261719 -0.429688 3.261719 -1.207031 C 3.261719 -2.03125 2.679688 -2.59375 1.855469 -2.59375 C 1.054688 -2.59375 0.496094 -2.03125 0.496094 -1.207031 C 0.496094 -0.417969 1.054688 0.121094 1.855469 0.121094 Z M 1.855469 0.121094 "/></g></g></g></svg>