<svg xmlns="http://www.w3.org/2000/svg" xmlns:xlink="http://www.w3.org/1999/xlink" width="500" zoomAndPan="magnify" viewBox="0 0 375 374.999991" height="500" preserveAspectRatio="xMidYMid meet" version="1.0"><defs><clipPath id="id1"><path d="M 4.589844 4.589844 L 368.339844 4.589844 L 368.339844 368.339844 L 4.589844 368.339844 Z M 4.589844 4.589844 " clip-rule="nonzero"/></clipPath></defs><g clip-path="url(#id1)"><path fill="#e03131" d="M 368.339844 186.464844 C 368.339844 189.441406 368.265625 192.414062 368.121094 195.386719 C 367.972656 198.359375 367.753906 201.328125 367.464844 204.289062 C 367.171875 207.253906 366.808594 210.207031 366.371094 213.152344 C 365.933594 216.09375 365.425781 219.027344 364.84375 221.945312 C 364.261719 224.867188 363.613281 227.769531 362.886719 230.65625 C 362.164062 233.542969 361.371094 236.410156 360.507812 239.257812 C 359.644531 242.109375 358.710938 244.933594 357.707031 247.734375 C 356.703125 250.539062 355.632812 253.316406 354.496094 256.0625 C 353.355469 258.8125 352.148438 261.535156 350.875 264.226562 C 349.605469 266.917969 348.265625 269.574219 346.863281 272.199219 C 345.460938 274.824219 343.992188 277.414062 342.464844 279.964844 C 340.933594 282.519531 339.339844 285.035156 337.6875 287.507812 C 336.035156 289.984375 334.320312 292.414062 332.546875 294.808594 C 330.773438 297.199219 328.945312 299.542969 327.054688 301.84375 C 325.167969 304.144531 323.222656 306.398438 321.222656 308.605469 C 319.226562 310.808594 317.171875 312.964844 315.070312 315.070312 C 312.964844 317.171875 310.808594 319.226562 308.605469 321.222656 C 306.398438 323.222656 304.144531 325.167969 301.84375 327.054688 C 299.542969 328.945312 297.199219 330.773438 294.804688 332.546875 C 292.414062 334.320312 289.984375 336.035156 287.507812 337.6875 C 285.035156 339.339844 282.519531 340.933594 279.964844 342.464844 C 277.414062 343.992188 274.824219 345.460938 272.199219 346.863281 C 269.574219 348.265625 266.917969 349.605469 264.226562 350.875 C 261.535156 352.148438 258.8125 353.355469 256.0625 354.496094 C 253.316406 355.632812 250.539062 356.703125 247.734375 357.707031 C 244.933594 358.710938 242.109375 359.644531 239.257812 360.507812 C 236.410156 361.371094 233.542969 362.164062 230.65625 362.886719 C 227.769531 363.613281 224.867188 364.261719 221.945312 364.84375 C 219.027344 365.425781 216.09375 365.933594 213.152344 366.371094 C 210.207031 366.808594 207.253906 367.171875 204.289062 367.464844 C 201.328125 367.753906 198.359375 367.972656 195.386719 368.121094 C 192.414062 368.265625 189.441406 368.339844 186.464844 368.339844 C 183.488281 368.339844 180.511719 368.265625 177.539062 368.121094 C 174.566406 367.972656 171.597656 367.753906 168.636719 367.464844 C 165.675781 367.171875 162.722656 366.808594 159.777344 366.371094 C 156.832031 365.933594 153.902344 365.425781 150.980469 364.84375 C 148.0625 364.261719 145.160156 363.613281 142.273438 362.886719 C 139.382812 362.164062 136.515625 361.371094 133.667969 360.507812 C 130.820312 359.644531 127.996094 358.710938 125.191406 357.707031 C 122.390625 356.703125 119.613281 355.632812 116.863281 354.496094 C 114.113281 353.355469 111.394531 352.148438 108.703125 350.875 C 106.011719 349.605469 103.355469 348.265625 100.730469 346.863281 C 98.105469 345.460938 95.515625 343.992188 92.960938 342.464844 C 90.410156 340.933594 87.894531 339.339844 85.417969 337.6875 C 82.945312 336.035156 80.511719 334.320312 78.121094 332.546875 C 75.730469 330.773438 73.382812 328.945312 71.082031 327.054688 C 68.78125 325.167969 66.53125 323.222656 64.324219 321.222656 C 62.117188 319.226562 59.964844 317.171875 57.859375 315.070312 C 55.753906 312.964844 53.703125 310.808594 51.703125 308.605469 C 49.703125 306.398438 47.761719 304.144531 45.871094 301.84375 C 43.984375 299.542969 42.152344 297.199219 40.378906 294.804688 C 38.609375 292.414062 36.894531 289.984375 35.242188 287.507812 C 33.585938 285.035156 31.996094 282.519531 30.464844 279.964844 C 28.933594 277.414062 27.46875 274.824219 26.066406 272.199219 C 24.660156 269.574219 23.324219 266.917969 22.050781 264.226562 C 20.777344 261.535156 19.574219 258.8125 18.433594 256.0625 C 17.292969 253.316406 16.222656 250.539062 15.21875 247.734375 C 14.21875 244.933594 13.285156 242.109375 12.421875 239.257812 C 11.554688 236.410156 10.761719 233.542969 10.039062 230.65625 C 9.316406 227.769531 8.664062 224.867188 8.082031 221.945312 C 7.503906 219.027344 6.996094 216.09375 6.558594 213.152344 C 6.121094 210.207031 5.757812 207.253906 5.464844 204.289062 C 5.171875 201.328125 4.953125 198.359375 4.808594 195.386719 C 4.660156 192.414062 4.589844 189.441406 4.589844 186.464844 C 4.589844 183.488281 4.660156 180.511719 4.808594 177.539062 C 4.953125 174.566406 5.171875 171.597656 5.464844 168.636719 C 5.757812 165.675781 6.121094 162.722656 6.558594 159.777344 C 6.996094 156.832031 7.503906 153.902344 8.082031 150.980469 C 8.664062 148.0625 9.316406 145.160156 10.039062 142.273438 C 10.761719 139.382812 11.554688 136.515625 12.421875 133.667969 C 13.285156 130.820312 14.21875 127.996094 15.21875 125.191406 C 16.222656 122.390625 17.292969 119.613281 18.433594 116.863281 C 19.574219 114.113281 20.777344 111.394531 22.050781 108.703125 C 23.324219 106.011719 24.660156 103.355469 26.066406 100.730469 C 27.46875 98.105469 28.933594 95.515625 30.464844 92.960938 C 31.996094 90.410156 33.585938 87.894531 35.242188 85.417969 C 36.894531 82.945312 38.609375 80.511719 40.378906 78.121094 C 42.152344 75.730469 43.984375 73.382812 45.871094 71.082031 C 47.761719 68.78125 49.703125 66.53125 51.703125 64.324219 C 53.703125 62.117188 55.753906 59.964844 57.859375 57.859375 C 59.964844 55.753906 62.117188 53.703125 64.324219 51.703125 C 66.53125 49.703125 68.78125 47.761719 71.082031 45.871094 C 73.382812 43.984375 75.730469 42.152344 78.121094 40.378906 C 80.511719 38.605469 82.945312 36.894531 85.417969 35.242188 C 87.894531 33.585938 90.410156 31.996094 92.960938 30.464844 C 95.515625 28.933594 98.105469 27.46875 100.730469 26.066406 C 103.355469 24.660156 106.011719 23.324219 108.703125 22.050781 C 111.394531 20.777344 114.113281 19.574219 116.863281 18.433594 C 119.613281 17.292969 122.390625 16.222656 125.191406 15.21875 C 127.996094 14.21875 130.820312 13.285156 133.667969 12.421875 C 136.515625 11.554688 139.382812 10.761719 142.273438 10.039062 C 145.160156 9.316406 148.0625 8.664062 150.980469 8.082031 C 153.902344 7.503906 156.832031 6.996094 159.777344 6.558594 C 162.722656 6.121094 165.675781 5.757812 168.636719 5.464844 C 171.597656 5.171875 174.566406 4.953125 177.539062 4.808594 C 180.511719 4.660156 183.488281 4.589844 186.464844 4.589844 C 189.441406 4.589844 192.414062 4.660156 195.386719 4.808594 C 198.359375 4.953125 201.328125 5.171875 204.289062 5.464844 C 207.253906 5.757812 210.207031 6.121094 213.152344 6.558594 C 216.09375 6.996094 219.027344 7.503906 221.945312 8.082031 C 224.867188 8.664062 227.769531 9.316406 230.65625 10.039062 C 233.542969 10.761719 236.410156 11.554688 239.257812 12.421875 C 242.109375 13.285156 244.933594 14.21875 247.734375 15.21875 C 250.539062 16.222656 253.316406 17.292969 256.0625 18.433594 C 258.8125 19.574219 261.535156 20.777344 264.226562 22.050781 C 266.917969 23.324219 269.574219 24.660156 272.199219 26.066406 C 274.824219 27.46875 277.414062 28.933594 279.964844 30.464844 C 282.519531 31.996094 285.035156 33.585938 287.507812 35.242188 C 289.984375 36.894531 292.414062 38.605469 294.808594 40.378906 C 297.199219 42.152344 299.542969 43.984375 301.84375 45.871094 C 304.144531 47.761719 306.398438 49.703125 308.605469 51.703125 C 310.808594 53.703125 312.964844 55.753906 315.070312 57.859375 C 317.171875 59.964844 319.226562 62.117188 321.222656 64.324219 C 323.222656 66.53125 325.167969 68.78125 327.054688 71.082031 C 328.945312 73.382812 330.773438 75.730469 332.546875 78.121094 C 334.320312 80.511719 336.035156 82.945312 337.6875 85.417969 C 339.339844 87.894531 340.933594 90.410156 342.464844 92.960938 C 343.992188 95.515625 345.460938 98.105469 346.863281 100.730469 C 348.265625 103.355469 349.605469 106.011719 350.875 108.703125 C 352.148438 111.394531 353.355469 114.113281 354.496094 116.863281 C 355.632812 119.613281 356.703125 122.390625 357.707031 125.191406 C 358.710938 127.996094 359.644531 130.820312 360.507812 133.667969 C 361.371094 136.515625 362.164062 139.382812 362.886719 142.273438 C 363.613281 145.160156 364.261719 148.0625 364.84375 150.980469 C 365.425781 153.902344 365.933594 156.832031 366.371094 159.777344 C 366.808594 162.722656 367.171875 165.675781 367.464844 168.636719 C 367.753906 171.597656 367.972656 174.566406 368.121094 177.539062 C 368.265625 180.511719 368.339844 183.488281 368.339844 186.464844 Z M 368.339844 186.464844 " fill-opacity="1" fill-rule="nonzero"/></g><path fill="#ffffff" d="M 115.410156 232.660156 L 257.394531 232.660156 C 257.707031 232.660156 258.011719 232.691406 258.316406 232.753906 C 258.621094 232.820312 258.917969 232.914062 259.203125 233.039062 C 259.492188 233.164062 259.765625 233.316406 260.023438 233.496094 C 260.28125 233.679688 260.519531 233.886719 260.738281 234.117188 C 260.957031 234.347656 261.15625 234.597656 261.328125 234.871094 C 261.5 235.140625 261.644531 235.425781 261.765625 235.730469 C 261.882812 236.03125 261.972656 236.339844 262.03125 236.660156 C 262.09375 236.980469 262.125 237.304688 262.125 237.632812 L 262.125 267.703125 C 262.125 268.027344 262.09375 268.351562 262.03125 268.671875 C 261.972656 268.992188 261.882812 269.300781 261.765625 269.605469 C 261.644531 269.90625 261.5 270.191406 261.328125 270.464844 C 261.15625 270.734375 260.957031 270.984375 260.738281 271.214844 C 260.519531 271.449219 260.28125 271.652344 260.023438 271.835938 C 259.765625 272.015625 259.492188 272.167969 259.203125 272.292969 C 258.917969 272.417969 258.621094 272.511719 258.316406 272.578125 C 258.011719 272.640625 257.707031 272.671875 257.394531 272.671875 L 115.410156 272.671875 C 115.101562 272.671875 114.792969 272.640625 114.488281 272.578125 C 114.183594 272.511719 113.886719 272.417969 113.601562 272.292969 C 113.316406 272.167969 113.042969 272.015625 112.785156 271.835938 C 112.527344 271.652344 112.289062 271.449219 112.066406 271.214844 C 111.847656 270.984375 111.652344 270.734375 111.480469 270.464844 C 111.308594 270.191406 111.160156 269.90625 111.042969 269.605469 C 110.921875 269.300781 110.835938 268.992188 110.773438 268.671875 C 110.714844 268.351562 110.683594 268.027344 110.683594 267.703125 L 110.683594 237.632812 C 110.683594 237.304688 110.714844 236.980469 110.773438 236.660156 C 110.835938 236.339844 110.921875 236.03125 111.042969 235.730469 C 111.160156 235.425781 111.308594 235.140625 111.480469 234.871094 C 111.652344 234.597656 111.847656 234.347656 112.066406 234.117188 C 112.289062 233.886719 112.527344 233.679688 112.785156 233.496094 C 113.042969 233.316406 113.316406 233.164062 113.601562 233.039062 C 113.886719 232.914062 114.183594 232.820312 114.488281 232.753906 C 114.792969 232.691406 115.101562 232.660156 115.410156 232.660156 Z M 115.410156 232.660156 " fill-opacity="1" fill-rule="evenodd"/><path fill="#ffffff" d="M 250 276.796875 L 247.453125 285.039062 C 246.726562 287.585938 245.269531 289.890625 242.480469 289.890625 L 130.445312 289.890625 C 127.65625 289.890625 126.203125 287.585938 125.476562 285.039062 L 122.929688 276.796875 Z M 250 276.796875 " fill-opacity="1" fill-rule="evenodd"/><path fill="#ffffff" d="M 217.019531 228.660156 L 217.019531 214.230469 C 217.019531 212.652344 215.804688 211.320312 214.230469 211.320312 L 158.699219 211.320312 C 157.121094 211.320312 155.910156 212.652344 155.910156 214.230469 L 155.910156 228.660156 Z M 217.019531 228.660156 " fill-opacity="1" fill-rule="evenodd"/><path fill="#ffffff" d="M 164.03125 207.320312 C 162.578125 158.332031 134.570312 177.734375 134.570312 134.8125 C 134.570312 106.195312 157.847656 83.039062 186.464844 83.039062 C 215.078125 83.039062 238.359375 106.195312 238.359375 134.8125 C 238.359375 177.734375 210.351562 158.332031 208.894531 207.320312 Z M 164.03125 207.320312 " fill-opacity="1" fill-rule="evenodd"/></svg>