<svg xmlns="http://www.w3.org/2000/svg" xmlns:xlink="http://www.w3.org/1999/xlink" width="500" zoomAndPan="magnify" viewBox="0 0 375 187.499995" height="250" preserveAspectRatio="xMidYMid meet" version="1.0"><defs><g/><clipPath id="id1"><path d="M 1 7 L 372 7 L 372 180 L 1 180 Z M 1 7 " clip-rule="nonzero"/></clipPath><clipPath id="id2"><path d="M -1.183594 72.441406 L 352.878906 4.425781 L 373.90625 113.878906 L 19.839844 181.890625 Z M -1.183594 72.441406 " clip-rule="nonzero"/></clipPath></defs><g clip-path="url(#id1)"><g clip-path="url(#id2)"><path fill="#e03131" d="M 338.074219 15.386719 C 342.730469 14.492188 347.292969 17.589844 348.1875 22.253906 L 362.941406 99.058594 C 363.835938 103.722656 360.746094 108.289062 356.089844 109.183594 L 34.648438 170.929688 C 29.992188 171.824219 25.429688 168.726562 24.535156 164.0625 L 9.78125 87.257812 C 8.882812 82.59375 11.972656 78.03125 16.632812 77.136719 L 338.074219 15.386719 M 336.570312 7.558594 L 15.128906 69.304688 C 6.144531 71.03125 0.234375 79.765625 1.960938 88.761719 L 16.714844 165.566406 C 18.445312 174.558594 27.171875 180.484375 36.152344 178.757812 L 357.59375 117.011719 C 366.574219 115.285156 372.488281 106.550781 370.757812 97.554688 L 356.003906 20.75 C 354.277344 11.757812 345.550781 5.832031 336.570312 7.558594 " fill-opacity="1" fill-rule="nonzero"/></g></g><g fill="#e03131" fill-opacity="1"><g transform="translate(39.105564, 161.990999)"><g><path d="M 0.078125 -21.890625 L -1.21875 -28.578125 L 9.609375 -30.65625 L 11.0625 -23.125 C 11.863281 -18.945312 12.78125 -16.082031 13.8125 -14.53125 C 14.851562 -12.976562 16.351562 -12.390625 18.3125 -12.765625 C 20.28125 -13.148438 21.453125 -14.097656 21.828125 -15.609375 C 22.203125 -17.117188 22.085938 -19.453125 21.484375 -22.609375 C 20.878906 -25.765625 19.78125 -28.398438 18.1875 -30.515625 C 16.59375 -32.640625 14.316406 -34.75 11.359375 -36.84375 L 4.71875 -41.46875 C 1.613281 -43.675781 -0.929688 -46.09375 -2.921875 -48.71875 C -4.921875 -51.34375 -6.285156 -54.566406 -7.015625 -58.390625 C -8.203125 -64.578125 -7.890625 -69.40625 -6.078125 -72.875 C -4.265625 -76.34375 -0.445312 -78.632812 5.375 -79.75 C 11.195312 -80.875 15.472656 -79.878906 18.203125 -76.765625 C 20.941406 -73.648438 22.957031 -68.722656 24.25 -61.984375 L 25.140625 -57.359375 L 14.609375 -55.328125 L 13.578125 -60.6875 C 12.878906 -64.320312 12.066406 -66.867188 11.140625 -68.328125 C 10.210938 -69.796875 8.859375 -70.359375 7.078125 -70.015625 C 5.304688 -69.679688 4.144531 -68.835938 3.59375 -67.484375 C 3.039062 -66.140625 2.992188 -64.273438 3.453125 -61.890625 C 3.910156 -59.503906 4.671875 -57.675781 5.734375 -56.40625 C 6.804688 -55.132812 8.585938 -53.585938 11.078125 -51.765625 L 18.5625 -46.265625 C 22.3125 -43.515625 25.300781 -40.570312 27.53125 -37.4375 C 29.769531 -34.300781 31.28125 -30.695312 32.0625 -26.625 C 33.414062 -19.601562 33.234375 -14.1875 31.515625 -10.375 C 29.796875 -6.570312 25.988281 -4.101562 20.09375 -2.96875 C 14.195312 -1.832031 9.726562 -2.910156 6.6875 -6.203125 C 3.65625 -9.503906 1.453125 -14.734375 0.078125 -21.890625 Z M 0.078125 -21.890625 "/></g></g></g><g fill="#e03131" fill-opacity="1"><g transform="translate(77.682797, 154.580508)"><g><path d="M 5.625 -1.078125 L -8.78125 -76.109375 L 2.640625 -78.3125 L 8.46875 -47.96875 L 18.703125 -49.921875 L 12.875 -80.265625 L 24.3125 -82.46875 L 38.71875 -7.4375 L 27.28125 -5.234375 L 20.578125 -40.109375 L 10.34375 -38.15625 L 17.046875 -3.28125 Z M 5.625 -1.078125 "/></g></g></g><g fill="#e03131" fill-opacity="1"><g transform="translate(122.014645, 146.064586)"><g><path d="M 21.421875 -27.515625 L 9.140625 -64.21875 L 8.96875 -64.1875 L 11.609375 -25.625 Z M 2.203125 -0.421875 L -1.484375 -77.515625 L 13.59375 -80.40625 L 39.390625 -7.5625 L 28.734375 -5.515625 L 24.375 -18.546875 L 12.28125 -16.21875 L 13.21875 -2.53125 Z M 2.203125 -0.421875 "/></g></g></g><g fill="#e03131" fill-opacity="1"><g transform="translate(163.618379, 138.07272)"><g/></g></g><g fill="#e03131" fill-opacity="1"><g transform="translate(179.262406, 135.067581)"><g><path d="M 15.3125 -12.140625 L 19.0625 -12.859375 C 21.164062 -13.265625 22.5625 -14.238281 23.25 -15.78125 C 23.945312 -17.332031 23.945312 -19.921875 23.25 -23.546875 L 16.078125 -60.609375 C 15.328125 -64.492188 14.316406 -67.171875 13.046875 -68.640625 C 11.773438 -70.109375 9.972656 -70.617188 7.640625 -70.171875 L 4.28125 -69.515625 Z M 5.578125 -1.078125 L -8.828125 -76.109375 L 8.015625 -79.34375 C 13.523438 -80.394531 17.835938 -79.535156 20.953125 -76.765625 C 24.066406 -73.992188 26.226562 -69.4375 27.4375 -63.09375 L 33.984375 -29.25 C 35.429688 -21.695312 35.242188 -15.914062 33.421875 -11.90625 C 31.597656 -7.894531 27.800781 -5.335938 22.03125 -4.234375 Z M 5.578125 -1.078125 "/></g></g></g><g fill="#e03131" fill-opacity="1"><g transform="translate(222.102316, 126.838252)"><g><path d="M 12.203125 -23.96875 C 13.046875 -19.550781 13.96875 -16.539062 14.96875 -14.9375 C 15.96875 -13.332031 17.503906 -12.726562 19.578125 -13.125 C 21.648438 -13.519531 22.84375 -14.664062 23.15625 -16.5625 C 23.46875 -18.46875 23.210938 -21.585938 22.390625 -25.921875 L 15.671875 -60.875 C 14.984375 -64.414062 14.144531 -66.941406 13.15625 -68.453125 C 12.175781 -69.972656 10.710938 -70.546875 8.765625 -70.171875 C 6.828125 -69.796875 5.625 -68.710938 5.15625 -66.921875 C 4.6875 -65.128906 4.789062 -62.476562 5.46875 -58.96875 Z M 33.828125 -28.234375 C 35.234375 -20.898438 34.976562 -15.175781 33.0625 -11.0625 C 31.144531 -6.957031 27.304688 -4.351562 21.546875 -3.25 C 15.796875 -2.144531 11.226562 -3.144531 7.84375 -6.25 C 4.46875 -9.363281 2.078125 -14.570312 0.671875 -21.875 L -5.921875 -56.1875 C -8.554688 -69.945312 -4.265625 -77.90625 6.953125 -80.0625 C 12.753906 -81.175781 17.257812 -80.226562 20.46875 -77.21875 C 23.675781 -74.207031 25.929688 -69.316406 27.234375 -62.546875 Z M 33.828125 -28.234375 "/></g></g></g><g fill="#e03131" fill-opacity="1"><g transform="translate(264.686467, 118.658053)"><g><path d="M 5.625 -1.078125 L -8.78125 -76.109375 L 0.171875 -77.828125 L 24.703125 -35.875 L 19.96875 -56.1875 L 15.265625 -80.734375 L 25.53125 -82.703125 L 39.9375 -7.671875 L 31.84375 -6.109375 L 6.5625 -49.578125 L 10.984375 -30.015625 L 16.15625 -3.109375 Z M 5.625 -1.078125 "/></g></g></g><g fill="#e03131" fill-opacity="1"><g transform="translate(310.254502, 109.904665)"><g><path d="M 5.625 -1.078125 L -8.78125 -76.109375 L 16.375 -80.9375 L 18.265625 -71.09375 L 4.53125 -68.46875 L 8.71875 -46.640625 L 21.765625 -49.140625 L 23.609375 -39.515625 L 10.5625 -37.015625 L 15.15625 -13.125 L 29.390625 -15.859375 L 31.28125 -6.015625 Z M 5.625 -1.078125 "/></g></g></g></svg>